<!-- Generator: Adobe Illustrator 21.1.0, SVG Export Plug-In  -->
<svg version="1.1"
	 xmlns="http://www.w3.org/2000/svg" xmlns:xlink="http://www.w3.org/1999/xlink" xmlns:a="http://ns.adobe.com/AdobeSVGViewerExtensions/3.0/"
	 x="0px" y="0px" width="30.528px" height="25.402px" viewBox="0 0 30.528 25.402"
	 style="enable-background:new 0 0 30.528 25.402;" xml:space="preserve">
<style type="text/css">
	.st0{fill:#FFFFFF;stroke:#FFFFFF;}
</style>
<defs>
</defs>
<g>
	<path class="st0" d="M16.661,21.972l5.659-7.783c0.01-0.014,0.017-0.028,0.026-0.043c0.028-0.041,0.052-0.085,0.078-0.129
		c0.053-0.086,0.102-0.173,0.144-0.264c0.024-0.052,0.045-0.105,0.065-0.159c0.035-0.094,0.065-0.188,0.089-0.286
		c0.013-0.051,0.026-0.1,0.036-0.151c0.027-0.151,0.046-0.305,0.046-0.458c0-0.153-0.019-0.306-0.046-0.457
		c-0.01-0.053-0.023-0.103-0.037-0.153c-0.023-0.096-0.052-0.19-0.088-0.283c-0.02-0.056-0.042-0.109-0.066-0.163
		c-0.04-0.087-0.087-0.17-0.137-0.252c-0.029-0.048-0.056-0.097-0.088-0.143c-0.009-0.013-0.015-0.026-0.023-0.039L16.66,3.427
		c-0.822-1.132-2.407-1.382-3.539-0.559c-1.132,0.823-1.381,2.409-0.559,3.539l2.732,3.758H3.034c-1.399,0-2.534,1.134-2.534,2.533
		c0,1.399,1.135,2.534,2.534,2.534h12.261l-2.733,3.759c-0.822,1.132-0.572,2.717,0.56,3.54
		C14.253,23.354,15.838,23.104,16.661,21.972z"/>
	<path class="st0" d="M24.96,3.033v19.335c0,1.399,1.135,2.534,2.534,2.534c1.399,0,2.534-1.135,2.534-2.534V3.033
		c0-1.399-1.135-2.533-2.534-2.533C26.095,0.5,24.96,1.634,24.96,3.033z"/>
</g>
</svg>