<svg id="Layer_1" data-name="Layer 1" xmlns="http://www.w3.org/2000/svg" viewBox="0 0 316 316"><title>DAI_icons_kin_1.3</title><path d="M158,4.5a153.5,153.5,0,0,1,0,307C73.3,311.5,4.6,242.7,4.6,158S73.3,4.5,158,4.5h0M158,0A158.08,158.08,0,1,0,269.7,46.3,158,158,0,0,0,158,0Z" fill="#b4b4b4"/><path d="M210.68,152.26H162.22v16.16h29.57a34.63,34.63,0,1,1-8.42-34.73l11.72-12.76a51.93,51.93,0,1,0-36.34,89c25.12,0,47.12-17.84,51.93-41.54V152.26Z" fill="#90c3e7"/><polygon points="242.16 152.23 232.24 152.23 232.24 142.31 223.74 142.31 223.74 152.23 213.82 152.23 213.82 160.72 223.74 160.72 223.74 170.64 232.24 170.64 232.24 160.72 242.16 160.72 242.16 152.23" fill="#90c3e7"/></svg>