<svg id="Layer_1" data-name="Layer 1" xmlns="http://www.w3.org/2000/svg" viewBox="0 0 316 316"><title>DAI_icons_kin_1.3</title><path d="M158,4.5a153.5,153.5,0,0,1,0,307C73.3,311.5,4.6,242.7,4.6,158S73.3,4.5,158,4.5h0M158,0A158.08,158.08,0,1,0,269.7,46.3,158,158,0,0,0,158,0Z" fill="#b4b4b4"/><path id="LinkedIn-2" d="M218.68,154.08v40.24H195.35V156.76c0-9.43-3.37-15.87-11.82-15.87-6.45,0-10.28,4.34-12,8.53a16,16,0,0,0-.77,5.69V194.3H147.45s.31-63.59,0-70.18h23.33v9.95l-.15.23h.15v-.22c3.1-4.77,8.64-11.6,21-11.6C207.17,122.48,218.68,132.51,218.68,154.08ZM123,90.3c-8,0-13.2,5.24-13.2,12.12s5.07,12.13,12.9,12.13h.16c8.14,0,13.2-5.39,13.2-12.13C135.94,95.54,131,90.3,123,90.3Zm-11.78,104h23.29V124.13H111.26Z" fill="#90c3e7"/></svg>