<?xml version="1.0" encoding="utf-8"?>
<!-- Generator: Adobe Illustrator 22.0.1, SVG Export Plug-In . SVG Version: 6.00 Build 0)  -->
<svg version="1.1" id="Layer_1" xmlns="http://www.w3.org/2000/svg" xmlns:xlink="http://www.w3.org/1999/xlink" x="0px" y="0px"
	 viewBox="0 0 316 316" style="enable-background:new 0 0 316 316;" xml:space="preserve">
<style type="text/css">
	.st0{fill:#B4B4B4;}
	.st1{fill:#90C3E7;}
</style>
<title>DAI_icons_kin_1.3</title>
<path class="st0" d="M158,4.5c84.8,0,153.5,68.7,153.5,153.5S242.8,311.5,158,311.5C73.3,311.5,4.6,242.7,4.6,158S73.3,4.5,158,4.5
	L158,4.5 M158,0C70.7,0-0.1,70.7-0.2,158s70.7,158.1,158,158.2c87.3,0,158.1-70.7,158.2-158c0-42-16.6-82.2-46.3-111.9
	C240.1,16.7,199.9,0,158,0z"/>
<g>
	<path class="st1" d="M157.9,84.8c-25.3,0-45.8,20.5-45.8,45.8c0,7.1,1.6,13.8,4.5,19.8c0.2,0.3,41.3,81,41.3,81l40.8-80
		c3.2-6.2,5-13.3,5-20.8C203.7,105.3,183.2,84.8,157.9,84.8z M157.9,158.1c-15.2,0-27.5-12.3-27.5-27.5s12.3-27.5,27.5-27.5
		c15.2,0,27.5,12.3,27.5,27.5S173.1,158.1,157.9,158.1z"/>
</g>
<circle class="st1" cx="158.1" cy="130.6" r="20.7"/>
</svg>
