<?xml version="1.0" encoding="utf-8"?>
<!-- Generator: Adobe Illustrator 22.0.1, SVG Export Plug-In . SVG Version: 6.00 Build 0)  -->
<svg version="1.1" id="Layer_1" xmlns="http://www.w3.org/2000/svg" xmlns:xlink="http://www.w3.org/1999/xlink" x="0px" y="0px"
	 viewBox="0 0 500 500" style="enable-background:new 0 0 500 500;" xml:space="preserve">
<style type="text/css">
	.st0{fill:#FFFFFF;}
</style>
<g>
	<path class="st0" d="M248.8,5.5C115.2,5.5,6,114.7,6,248.2C6,381.8,115.2,491,248.8,491c133.5,0,242.8-109.2,242.8-242.8
		S382.3,5.5,248.8,5.5z M248.8,473.3c-123.2,0-224.1-100.8-224.1-224.1S125.5,25.1,248.8,25.1c123.2,0,224.1,100.8,224.1,224.1
		C472.8,372.4,372,473.3,248.8,473.3z"/>
	<rect x="176.9" y="158.6" class="st0" width="149.4" height="18.7"/>
	<rect x="176.9" y="195" class="st0" width="149.4" height="18.7"/>
	<rect x="176.9" y="231.4" class="st0" width="149.4" height="18.7"/>
	<rect x="176.9" y="266.9" class="st0" width="149.4" height="18.7"/>
	<rect x="176.9" y="303.3" class="st0" width="74.7" height="18.7"/>
	<polygon class="st0" points="325.3,303.3 306.6,303.3 306.6,339.7 270.2,339.7 270.2,358.4 306.6,358.4 306.6,394.8 325.3,394.8 
		325.3,358.4 361.7,358.4 361.7,339.7 325.3,339.7 	"/>
</g>
</svg>
