<svg id="Layer_1" data-name="Layer 1" xmlns="http://www.w3.org/2000/svg" viewBox="0 0 316 316"><title>DAI_icons_kin_1.3</title><path d="M158,4.5a153.5,153.5,0,0,1,0,307C73.3,311.5,4.6,242.7,4.6,158S73.3,4.5,158,4.5h0M158,0A158.08,158.08,0,1,0,269.7,46.3,158,158,0,0,0,158,0Z" fill="#b4b4b4"/><path d="M221.86,122.2a52.39,52.39,0,0,1-15,4.13,26.28,26.28,0,0,0,11.47-14.52,52.45,52.45,0,0,1-16.64,6.36A26.22,26.22,0,0,0,157,142.08a74.38,74.38,0,0,1-54-27.37,26.23,26.23,0,0,0,8.11,35,26.09,26.09,0,0,1-11.83-3.3v.33a26.22,26.22,0,0,0,21,25.69,26.23,26.23,0,0,1-11.83.45,26.23,26.23,0,0,0,24.47,18.2,52.9,52.9,0,0,1-38.79,10.85A74.15,74.15,0,0,0,134.3,213.7c48.19,0,74.54-39.92,74.54-74.55q0-1.7-.08-3.39A53.23,53.23,0,0,0,221.86,122.2Z" fill="#90c3e7"/></svg>