<?xml version="1.0" encoding="utf-8"?>
<!-- Generator: Adobe Illustrator 24.3.0, SVG Export Plug-In . SVG Version: 6.00 Build 0)  -->
<svg version="1.0" id="Layer_1" xmlns="http://www.w3.org/2000/svg" xmlns:xlink="http://www.w3.org/1999/xlink" x="0px" y="0px"
	 width="300px" height="42px" viewBox="0 0 300 42" style="enable-background:new 0 0 300 42;" xml:space="preserve">
<style type="text/css">
	.st0{fill:#BB9335;}
	.st1{fill:#455560;}
	.st2{fill:#FFFFFF;}
</style>
<g>
	<g>
		<path class="st0" d="M98.5,8c0.1-0.6,0.3-0.9,0.6-0.9c0.3,0,0.5,0.2,0.9,1.1l9.6,19.7l9.5-20c0.3-0.6,0.5-0.8,0.8-0.8
			s0.5,0.4,0.6,1.1l3.2,21.6c0.3,2.2,0.7,3.2,1.7,3.5c1,0.3,1.7,0.4,2.2,0.4c0.3,0,0.6,0,0.6,0.2c0,0.3-0.4,0.4-0.9,0.4
			c-0.9,0-5.7-0.1-7.1-0.2c-0.8-0.1-1-0.2-1-0.4c0-0.2,0.1-0.3,0.4-0.4c0.2-0.1,0.3-0.5,0.2-1.5l-2.1-15.4h-0.1l-7.6,15.9
			c-0.8,1.6-1,2-1.3,2s-0.7-0.7-1.2-1.8c-0.8-1.6-3.6-7-4-7.9c-0.3-0.7-2.4-5.1-3.6-7.8h-0.1l-1.8,13.9c-0.1,0.6-0.1,1.1-0.1,1.6
			c0,0.7,0.5,1,1,1.1c0.6,0.1,1.1,0.2,1.5,0.2c0.3,0,0.5,0.1,0.5,0.2c0,0.3-0.3,0.4-0.8,0.4c-1.5,0-3-0.1-3.7-0.1
			c-0.7,0-2.3,0.1-3.5,0.1c-0.4,0-0.6-0.1-0.6-0.4c0-0.2,0.2-0.2,0.6-0.2c0.3,0,0.5,0,1.1-0.1c1-0.2,1.3-1.6,1.4-2.8L98.5,8z"/>
		<path class="st0" d="M134.8,25.2c-0.2,0-0.2,0.1-0.3,0.3l-1.9,5c-0.4,0.9-0.5,1.7-0.5,2.1c0,0.6,0.3,1.1,1.4,1.1h0.5
			c0.4,0,0.5,0.1,0.5,0.3c0,0.3-0.2,0.4-0.6,0.4c-1.1,0-2.6-0.1-3.7-0.1c-0.4,0-2.3,0.1-4.1,0.1c-0.5,0-0.7-0.1-0.7-0.4
			c0-0.2,0.1-0.3,0.4-0.3c0.3,0,0.8,0,1.1-0.1c1.6-0.2,2.3-1.4,3-3.2l8.8-22c0.4-1,0.6-1.4,1-1.4c0.3,0,0.5,0.3,0.9,1.1
			c0.8,1.9,6.4,16.2,8.7,21.5c1.3,3.2,2.3,3.6,3.1,3.8c0.5,0.1,1.1,0.1,1.5,0.1c0.3,0,0.5,0,0.5,0.3c0,0.3-0.3,0.4-1.6,0.4
			c-1.3,0-3.8,0-6.6-0.1c-0.6,0-1,0-1-0.3c0-0.2,0.1-0.3,0.5-0.3c0.2-0.1,0.5-0.4,0.3-0.8l-2.8-7.4c-0.1-0.2-0.2-0.2-0.3-0.2H134.8z
			 M141.9,23.5c0.2,0,0.2-0.1,0.2-0.2l-3.2-8.6c0-0.1-0.1-0.3-0.2-0.3s-0.2,0.2-0.2,0.3l-3.2,8.6c0,0.1,0,0.2,0.1,0.2H141.9z"/>
		<path class="st0" d="M178.8,32c0,0.9,0,1-0.5,1.3c-2.3,1.2-5.7,1.6-8.4,1.6c-8.6,0-16.2-4.1-16.2-13.7c0-5.6,2.9-9.5,6.1-11.4
			c3.4-2,6.5-2.3,9.4-2.3c2.4,0,5.5,0.4,6.2,0.6c0.7,0.1,2,0.4,2.8,0.4c0.4,0,0.5,0.2,0.5,0.4c0,0.4-0.2,1.4-0.2,5.7
			c0,0.6-0.1,0.7-0.4,0.7c-0.2,0-0.3-0.2-0.4-0.5c-0.1-0.8-0.3-1.9-1.2-2.9c-1-1.1-3.8-2.7-7.8-2.7c-1.9,0-4.5,0.1-6.9,2.2
			c-2,1.6-3.2,4.3-3.2,8.6c0,7.5,4.8,13.2,12.2,13.2c0.9,0,2.1,0,3-0.4c0.5-0.2,0.7-0.7,0.7-1.3v-3.3c0-1.8,0-3.1,0-4.1
			c0-1.2-0.3-1.8-1.5-2c-0.3-0.1-0.9-0.1-1.4-0.1c-0.3,0-0.5-0.1-0.5-0.3c0-0.3,0.2-0.4,0.7-0.4c1.8,0,4,0.1,5.1,0.1
			c1.1,0,2.9-0.1,4.1-0.1c0.5,0,0.7,0.1,0.7,0.4c0,0.2-0.2,0.3-0.5,0.3c-0.3,0-0.5,0-0.9,0.1c-0.9,0.2-1.3,0.8-1.3,2
			c0,1,0,2.5,0,4.2V32z"/>
		<path class="st0" d="M188.2,18.1c0-5.3,0-6.3-0.1-7.4c-0.1-1.2-0.4-1.8-1.2-2c-0.4-0.1-0.8-0.1-1.3-0.1c-0.4,0-0.6-0.1-0.6-0.4
			c0-0.2,0.3-0.3,0.8-0.3c1.3,0,3.5,0.1,4.5,0.1c0.9,0,2.9-0.1,4.3-0.1c0.5,0,0.7,0.1,0.7,0.3c0,0.3-0.2,0.4-0.6,0.4
			c-0.3,0-0.6,0-1,0.1c-0.9,0.2-1.2,0.8-1.3,2c-0.1,1.1-0.1,2.1-0.1,7.4v6.2c0,3.4,0,6.2,0.1,7.7c0.1,0.9,0.3,1.6,1.4,1.7
			c0.5,0.1,1.3,0.1,1.8,0.1c0.4,0,0.6,0.1,0.6,0.3c0,0.2-0.3,0.4-0.7,0.4c-2.3,0-4.5-0.1-5.5-0.1c-0.8,0-3,0.1-4.4,0.1
			c-0.5,0-0.7-0.1-0.7-0.4c0-0.2,0.1-0.3,0.6-0.3c0.5,0,0.9-0.1,1.3-0.1c0.7-0.1,0.9-0.7,1-1.8c0.2-1.5,0.2-4.2,0.2-7.6V18.1z"/>
		<path class="st0" d="M201.7,34c-0.6-0.2-0.7-0.4-0.7-1.2c0-1.9,0.1-4,0.2-4.6c0-0.5,0.1-0.9,0.4-0.9c0.3,0,0.3,0.3,0.3,0.6
			c0,0.5,0.1,1.2,0.3,1.8c0.8,2.6,2.8,3.5,5,3.5c3.2,0,4.7-2.1,4.7-4c0-1.7-0.5-3.3-3.4-5.6l-1.6-1.3c-3.9-3-5.2-5.5-5.2-8.3
			c0-3.9,3.2-6.6,8.1-6.6c2.3,0,3.7,0.4,4.7,0.6c0.3,0.1,0.5,0.2,0.5,0.4c0,0.5-0.1,1.5-0.1,4.2c0,0.8-0.1,1.1-0.4,1.1
			c-0.2,0-0.3-0.2-0.3-0.6c0-0.3-0.2-1.4-0.9-2.3c-0.5-0.7-1.5-1.7-3.8-1.7c-2.6,0-4.2,1.5-4.2,3.6c0,1.6,0.8,2.8,3.7,5l1,0.7
			c4.2,3.2,5.7,5.6,5.7,8.9c0,2-0.8,4.4-3.3,6.1c-1.8,1.1-3.7,1.4-5.6,1.4C204.8,34.9,203.2,34.6,201.7,34z"/>
		<path class="st0" d="M228.3,9.9l-5.2,0.1c-2,0.1-2.9,0.2-3.4,1c-0.3,0.5-0.5,0.9-0.6,1.2c-0.1,0.3-0.2,0.4-0.4,0.4
			c-0.2,0-0.3-0.2-0.3-0.6c0-0.6,0.7-3.7,0.7-4c0.1-0.5,0.2-0.7,0.4-0.7c0.3,0,0.6,0.4,1.5,0.4c1,0.1,2.3,0.2,3.5,0.2h13.9
			c1.1,0,1.9-0.1,2.4-0.2c0.5-0.1,0.8-0.2,0.9-0.2c0.2,0,0.3,0.2,0.3,0.7c0,0.7-0.1,3.2-0.1,4.1c0,0.4-0.1,0.6-0.3,0.6
			c-0.3,0-0.3-0.2-0.4-0.7l0-0.4c-0.1-0.9-1-1.9-4.1-2l-4.4-0.1v14.4c0,3.2,0,6,0.2,7.5c0.1,1,0.3,1.8,1.4,1.9
			c0.5,0.1,1.3,0.1,1.8,0.1c0.4,0,0.6,0.1,0.6,0.3c0,0.2-0.3,0.4-0.7,0.4c-2.3,0-4.5-0.1-5.5-0.1c-0.8,0-3,0.1-4.4,0.1
			c-0.5,0-0.7-0.1-0.7-0.4c0-0.2,0.1-0.3,0.6-0.3c0.5,0,0.9-0.1,1.3-0.1c0.7-0.1,0.9-0.9,1-1.9c0.2-1.5,0.2-4.2,0.2-7.5V9.9z"/>
		<path class="st0" d="M248.2,18.1c0-5.3,0-6.3-0.1-7.4c-0.1-1.2-0.4-1.8-1.5-2c-0.3-0.1-0.9-0.1-1.4-0.1c-0.4,0-0.6-0.1-0.6-0.3
			c0-0.2,0.2-0.3,0.8-0.3c0.9,0,2,0,2.8,0c0.9,0,1.7,0.1,2.2,0.1c1.1,0,8.1,0,8.8,0c0.7-0.1,1.2-0.1,1.5-0.2c0.2,0,0.4-0.1,0.6-0.1
			s0.2,0.1,0.2,0.3c0,0.2-0.2,0.7-0.3,2.3c0,0.4-0.1,1.9-0.2,2.3c0,0.2-0.1,0.4-0.3,0.4s-0.3-0.2-0.3-0.5c0-0.2,0-0.8-0.2-1.3
			c-0.2-0.6-0.6-1-2.3-1.3c-0.6-0.1-4.3-0.1-5-0.1c-0.2,0-0.2,0.1-0.2,0.4V19c0,0.2,0,0.4,0.2,0.4c0.8,0,4.8,0,5.6-0.1
			c0.8-0.1,1.4-0.2,1.7-0.5c0.2-0.3,0.4-0.5,0.6-0.5c0.1,0,0.2,0.1,0.2,0.3s-0.1,0.8-0.3,2.6c0,0.7-0.1,2.1-0.1,2.3
			c0,0.3,0,0.7-0.3,0.7c-0.2,0-0.3-0.1-0.3-0.3c0-0.4,0-0.8-0.1-1.3c-0.2-0.7-0.7-1.2-2-1.4c-0.7-0.1-4.1-0.1-5-0.1
			c-0.2,0-0.2,0.1-0.2,0.3v2.8c0,1.2,0,4.4,0,5.4c0.1,2.4,0.6,2.9,4.2,2.9c0.9,0,2.4,0,3.3-0.4c0.9-0.4,1.3-1.2,1.6-2.6
			c0.1-0.4,0.1-0.5,0.4-0.5c0.3,0,0.3,0.3,0.3,0.6c0,0.8-0.3,3.2-0.5,3.9c-0.2,0.9-0.6,0.9-1.9,0.9c-2.6,0-4.6-0.1-6.1-0.1
			c-1.5-0.1-2.6-0.1-3.6-0.1c-0.4,0-1.2,0-2,0c-0.8,0-1.7,0.1-2.4,0.1c-0.5,0-0.7-0.1-0.7-0.4c0-0.2,0.1-0.3,0.6-0.3
			c0.5,0,0.9-0.1,1.3-0.1c0.7-0.1,0.9-0.9,1-1.9c0.2-1.5,0.2-4.2,0.2-7.5V18.1z"/>
		<path class="st0" d="M269.9,18.1c0-5.3,0-6.3-0.1-7.4c-0.1-1.2-0.4-1.8-1.5-2c-0.3-0.1-0.9-0.1-1.4-0.1c-0.4,0-0.6-0.1-0.6-0.3
			c0-0.2,0.2-0.3,0.8-0.3c1.9,0,4.1,0.1,4.8,0.1c1.2,0,3.9-0.1,4.9-0.1c2.2,0,4.6,0.2,6.4,1.5c1,0.7,2.4,2.5,2.4,4.8
			c0,2.6-1.1,5-4.6,7.8c3.1,3.9,5.5,7,7.6,9.2c2,2,3.4,2.3,3.9,2.4c0.4,0.1,0.7,0.1,1,0.1s0.4,0.1,0.4,0.3c0,0.3-0.2,0.4-0.7,0.4
			H290c-2,0-2.8-0.2-3.7-0.7c-1.5-0.8-2.8-2.5-4.8-5.1c-1.4-1.9-3-4.3-3.5-4.8c-0.2-0.2-0.4-0.2-0.6-0.2l-3-0.1
			c-0.2,0-0.3,0.1-0.3,0.3v0.5c0,3.3,0,6,0.2,7.5c0.1,1,0.3,1.8,1.4,1.9c0.5,0.1,1.3,0.1,1.7,0.1c0.3,0,0.4,0.1,0.4,0.3
			c0,0.2-0.2,0.4-0.7,0.4c-2,0-4.6-0.1-5.1-0.1c-0.7,0-2.9,0.1-4.3,0.1c-0.5,0-0.7-0.1-0.7-0.4c0-0.2,0.1-0.3,0.6-0.3
			c0.5,0,0.9-0.1,1.3-0.1c0.7-0.1,0.9-0.9,1-1.9c0.2-1.5,0.2-4.2,0.2-7.5V18.1z M274.1,20.8c0,0.4,0.1,0.5,0.3,0.6
			c0.7,0.2,1.8,0.4,2.7,0.4c1.4,0,1.9-0.1,2.5-0.6c1-0.8,2.1-2.4,2.1-5.3c0-5-3.3-6.4-5.4-6.4c-0.9,0-1.5,0-1.9,0.1
			c-0.2,0.1-0.3,0.2-0.3,0.5V20.8z"/>
	</g>
	<g>
		<g>
			<path class="st1" d="M298,2v38H2V2H298 M300,0H0v42h300V0L300,0z"/>
		</g>
		<rect class="st1" width="86" height="42"/>
		<g>
			<path class="st2" d="M33.5,11.2c2.2,2.3,3.3,5.5,3.3,9.8c0,4.2-1.1,7.5-3.3,9.8c-2.2,2.3-5.3,3.4-9.4,3.4H12V7.8h12.1
				C28.2,7.8,31.4,8.9,33.5,11.2z M27.2,26.5c0.8-1.2,1.2-3,1.2-5.5c0-2.5-0.4-4.3-1.2-5.5c-0.8-1.2-2.2-1.7-4.1-1.7h-3v14.5h3
				C25,28.2,26.4,27.7,27.2,26.5z"/>
			<path class="st2" d="M54.2,28.7h-8l-1.5,5.5h-8.2l8.9-26.4h9.8l8.9,26.4h-8.4L54.2,28.7z M52.8,23.4l-1.4-5.2l-1.1-4.3h-0.1
				l-1.1,4.3l-1.5,5.3H52.8z"/>
			<path class="st2" d="M74,34.2h-8.2V7.8H74V34.2z"/>
		</g>
	</g>
</g>
</svg>
