<?xml version="1.0" encoding="utf-8"?>
<!-- Generator: Adobe Illustrator 26.0.3, SVG Export Plug-In . SVG Version: 6.00 Build 0)  -->
<svg version="1.1" id="Layer_1" xmlns="http://www.w3.org/2000/svg" xmlns:xlink="http://www.w3.org/1999/xlink" x="0px" y="0px"
	 viewBox="0 0 254 27.1" style="enable-background:new 0 0 254 27.1;" xml:space="preserve">
<style type="text/css">
	.st0{fill:#F15632;}
	.st1{fill:#101C2C;}
</style>
<g>
	<g>
		<path class="st0" d="M70.7,0.5l9,22.9l9-22.9h3.7v26.1h-2.5V4.1h-0.1l-8.9,22.5h-2.3L69.6,4.1h-0.1v22.5h-2.5V0.5H70.7z"/>
		<path class="st0" d="M109.8,0.5L120,26.6h-2.7l-3.2-8.1h-11.9l-3.1,8.1h-2.6L107,0.5H109.8z M113.3,16.4l-5-13.4l-5.2,13.4H113.3z
			"/>
		<path class="st0" d="M144.7,26.6l-0.3-4.7h-0.1c-0.4,0.9-1,1.7-1.6,2.4c-0.6,0.7-1.4,1.2-2.1,1.6c-0.8,0.4-1.6,0.7-2.5,0.9
			c-0.9,0.2-1.8,0.3-2.8,0.3c-2,0-3.8-0.4-5.4-1.1s-2.8-1.7-3.9-3c-1-1.2-1.8-2.7-2.3-4.3c-0.5-1.6-0.8-3.3-0.8-5.1
			c0-1.8,0.3-3.5,0.8-5.1c0.5-1.6,1.3-3.1,2.3-4.3c1-1.3,2.3-2.3,3.9-3c1.5-0.7,3.3-1.1,5.4-1.1c1.4,0,2.7,0.2,3.9,0.5
			c1.2,0.4,2.3,0.9,3.2,1.6s1.8,1.6,2.4,2.7c0.7,1.1,1.1,2.3,1.4,3.8h-2.5c-0.1-0.8-0.3-1.5-0.7-2.3c-0.4-0.8-1-1.5-1.7-2.1
			c-0.7-0.6-1.6-1.2-2.6-1.6c-1-0.4-2.1-0.6-3.4-0.6c-1.7,0-3.2,0.3-4.5,1c-1.2,0.7-2.3,1.5-3,2.6C127,6.8,126.4,8,126,9.4
			c-0.4,1.4-0.6,2.8-0.6,4.2c0,1.4,0.2,2.8,0.6,4.2c0.4,1.4,1,2.6,1.8,3.7c0.8,1.1,1.8,2,3,2.6s2.7,1,4.5,1c1.4,0,2.7-0.2,3.9-0.7
			s2.1-1.1,2.9-2c0.8-0.9,1.4-1.9,1.8-3s0.6-2.4,0.5-3.8h-8.9v-2.1h11.1v13.3H144.7z"/>
		<path class="st0" d="M155.8,0.5v26.1h-2.5V0.5H155.8z"/>
		<path class="st0" d="M164.8,21.4c0.4,0.9,1,1.6,1.8,2.2c0.8,0.5,1.7,0.9,2.7,1.2c1,0.2,2.2,0.3,3.4,0.3c0.7,0,1.4-0.1,2.2-0.3
			c0.8-0.2,1.6-0.5,2.2-0.9c0.7-0.4,1.3-1,1.7-1.6c0.5-0.7,0.7-1.5,0.7-2.4c0-0.7-0.2-1.4-0.5-1.9c-0.3-0.5-0.8-1-1.3-1.4
			c-0.5-0.4-1.1-0.7-1.7-0.9c-0.6-0.2-1.3-0.4-1.9-0.6l-5.8-1.4c-0.8-0.2-1.5-0.4-2.2-0.7c-0.7-0.3-1.3-0.7-1.9-1.2
			c-0.5-0.5-1-1.1-1.3-1.8c-0.3-0.7-0.5-1.6-0.5-2.6c0-0.6,0.1-1.4,0.4-2.2c0.2-0.9,0.7-1.7,1.4-2.4c0.7-0.8,1.6-1.4,2.8-1.9
			c1.2-0.5,2.7-0.8,4.5-0.8c1.3,0,2.5,0.2,3.7,0.5c1.2,0.3,2.2,0.9,3.1,1.5c0.9,0.7,1.6,1.5,2.1,2.5c0.5,1,0.8,2.2,0.8,3.5h-2.5
			c0-1-0.3-1.9-0.7-2.6c-0.4-0.7-0.9-1.4-1.6-1.9c-0.6-0.5-1.4-0.9-2.2-1.1c-0.8-0.3-1.7-0.4-2.6-0.4c-0.9,0-1.7,0.1-2.5,0.3
			c-0.8,0.2-1.5,0.5-2.1,0.9s-1.1,0.9-1.4,1.6c-0.4,0.7-0.5,1.5-0.5,2.4c0,0.6,0.1,1.1,0.3,1.6c0.2,0.5,0.5,0.8,0.9,1.2
			c0.4,0.3,0.8,0.6,1.3,0.8c0.5,0.2,1,0.4,1.5,0.5l6.4,1.6c0.9,0.2,1.8,0.5,2.6,0.9c0.8,0.4,1.5,0.8,2.2,1.3
			c0.6,0.5,1.1,1.2,1.5,1.9c0.4,0.8,0.5,1.7,0.5,2.7c0,0.3,0,0.7-0.1,1.2c-0.1,0.5-0.2,1-0.4,1.6c-0.2,0.5-0.6,1.1-1,1.7
			c-0.4,0.6-1,1.1-1.8,1.5c-0.7,0.5-1.7,0.8-2.8,1.1c-1.1,0.3-2.4,0.4-3.9,0.4c-1.5,0-3-0.2-4.3-0.5c-1.3-0.4-2.4-0.9-3.4-1.6
			c-0.9-0.7-1.6-1.7-2.1-2.8c-0.5-1.1-0.7-2.5-0.6-4.1h2.5C164.2,19.4,164.4,20.5,164.8,21.4z"/>
		<path class="st0" d="M205.7,0.5v2.1h-9.1v24h-2.5v-24h-9.1V0.5H205.7z"/>
		<path class="st0" d="M228,0.5v2.1h-15.5v9.4H227v2.1h-14.5v10.3h15.7v2.1H210V0.5H228z"/>
		<path class="st0" d="M245.4,0.5c1.1,0,2.1,0.1,3,0.4c1,0.3,1.8,0.7,2.5,1.2c0.7,0.5,1.3,1.3,1.7,2.1c0.4,0.9,0.6,1.9,0.6,3
			c0,1.7-0.4,3.1-1.3,4.3c-0.9,1.2-2.1,2-3.8,2.3v0.1c0.9,0.1,1.6,0.3,2.1,0.7c0.6,0.3,1,0.7,1.4,1.3c0.4,0.5,0.6,1.1,0.8,1.8
			c0.2,0.7,0.3,1.4,0.3,2.2c0,0.4,0,1,0.1,1.6c0,0.6,0.1,1.3,0.1,1.9c0.1,0.6,0.2,1.3,0.3,1.8c0.2,0.6,0.4,1,0.6,1.3h-2.7
			c-0.1-0.2-0.3-0.5-0.3-0.9c-0.1-0.4-0.1-0.7-0.2-1.1c0-0.4-0.1-0.7-0.1-1.1c0-0.4,0-0.7-0.1-0.9c0-0.9-0.1-1.8-0.2-2.8
			c-0.1-0.9-0.3-1.7-0.7-2.4c-0.4-0.7-0.9-1.3-1.5-1.7c-0.7-0.4-1.6-0.6-2.8-0.6H236v11.6h-2.5V0.5H245.4z M245.2,12.9
			c0.8,0,1.5-0.1,2.2-0.3c0.7-0.2,1.3-0.6,1.8-1c0.5-0.4,0.9-1,1.2-1.6c0.3-0.6,0.5-1.3,0.5-2.1c0-1.6-0.5-2.9-1.4-3.8
			c-0.9-0.9-2.3-1.4-4.2-1.4H236v10.3H245.2z"/>
	</g>
	<g>
		<g>
			<g>
				<path class="st1" d="M21.5,3.8c2.2,2.3,3.3,5.5,3.3,9.8c0,4.2-1.1,7.5-3.3,9.8s-5.3,3.4-9.4,3.4H0V0.4h12.1
					C16.2,0.4,19.4,1.5,21.5,3.8z M15.2,19.1c0.8-1.2,1.2-3,1.2-5.5S16,9.3,15.2,8.1c-0.8-1.2-2.2-1.7-4.1-1.7h-3v14.5h3
					C13,20.8,14.4,20.3,15.2,19.1z"/>
				<path class="st1" d="M42.2,21.3h-8l-1.5,5.5h-8.2l8.9-26.4h9.8l8.9,26.4h-8.4L42.2,21.3z M40.8,16l-1.4-5.2l-1.1-4.3h-0.1
					l-1.1,4.3l-1.5,5.3h5.2V16z"/>
				<path class="st1" d="M62,26.8h-8.2V0.4H62V26.8z"/>
			</g>
		</g>
	</g>
</g>
</svg>
