<?xml version="1.0" encoding="utf-8"?>
<!-- Generator: Adobe Illustrator 27.0.0, SVG Export Plug-In . SVG Version: 6.00 Build 0)  -->
<svg version="1.1" id="Layer_1" xmlns="http://www.w3.org/2000/svg" xmlns:xlink="http://www.w3.org/1999/xlink" x="0px" y="0px"
	 viewBox="0 0 234.1 234.1" style="enable-background:new 0 0 234.1 234.1;" xml:space="preserve">
<style type="text/css">
	.st0{fill:#F9CC73;}
	.st1{fill:#FFFFFF;}
</style>
<path class="st0" d="M117.1,0c64.7,0,117.1,52.4,117.1,117.1c0,64.7-52.4,117.1-117.1,117.1C52.4,234.1,0,181.7,0,117.1
	C0,52.4,52.4,0,117.1,0z"/>
<g>
	<path class="st1" d="M43.7,142.2C43.7,142.2,43.7,142.2,43.7,142.2c0.8,0,1.6-0.3,2.2-0.9c1.2-1.2,1.2-3.2,0-4.4
		c-0.6-0.6-1.4-0.9-2.2-0.9c0,0,0,0,0,0c-0.8,0-1.6,0.3-2.2,0.9c-0.6,0.6-0.9,1.4-0.9,2.2c0,0.8,0.3,1.6,0.9,2.2
		S42.9,142.2,43.7,142.2z"/>
	<path class="st1" d="M190.6,154.4l-12.5-12.5c-1.8-1.8-2.7-4.1-2.7-6.6l0-7c0-3.8-1.5-7.4-4.2-10.1L160,107
		c-1.4-1.4-2.9-2.4-4.7-3.1c1.9-2.4,3-5.4,3-8.6l0-15.7c0-3.8-1.5-7.4-4.2-10.1l-4.9-4.9c-1.8-1.8-2.7-4.1-2.7-6.7l-0.1-0.9l0-0.6h0
		l-0.2-8.4h1.1c1.9,0,3.4-1.5,3.4-3.4S149,41,147.1,41h-1.3l-0.2-6.4c0-1.7-1.4-3-3-3h-39.3c-1.7,0-3,1.4-3,3l0,6.4h-0.8
		c-1.9,0-3.4,1.5-3.4,3.4s1.5,3.4,3.4,3.4h0.8l0,8.4h0l0,0.4l0,0.6h0l0,1.5c0,2.3-0.8,4.5-2.3,6.2c-2.3,2.6-3.6,6-3.6,9.5l0,14.8
		c-1.5,2.7-1.5,6,0,8.7c-1,0.4-1.9,1.1-2.7,1.8c-3.4,3.4-3.4,9.1,0,12.5l3.6,3.6c-0.9,0.4-1.7,1-2.4,1.7c-1.7,1.7-2.6,3.9-2.6,6.2
		c0,2.4,0.9,4.6,2.6,6.3l11.3,11.3l-9.4,0c-0.8,0-1.5,0.3-2.1,0.9c-0.6,0.6-0.9,1.3-0.9,2.1c0,0.8,0.3,1.5,0.9,2.1
		c0.6,0.6,1.3,0.9,2.1,0.9l8.2,0c-0.4,1-1,1.9-1.8,2.7c-1.5,1.5-3.4,2.3-5.5,2.3c0,0,0,0,0,0l-15.7,0c-2.3,0-4.4-0.9-6-2.5l-4.9-4.9
		c-2.9-2.9-6.7-4.5-10.8-4.5h-0.6l0-34.3l1.5,0c0,0,0,0,0,0c3.7,0,7.3-1.3,10-3.8c1.5-1.4,3.5-2.1,5.6-2.1c0,0,0,0,0,0l11.3,0
		c1.6,0,2.9-1.3,2.9-3c0-1.6-1.3-2.9-2.9-2.9c0,0,0,0,0,0l-11.3,0c0,0,0,0,0,0c-3.5,0-6.8,1.3-9.5,3.6c-1.7,1.5-3.9,2.3-6.2,2.3
		c0,0,0,0,0,0l-0.1,0c-0.1,0-0.2,0-0.3,0h-1.1c-0.2-3-2.6-5.3-5.7-5.3l-16.2,0c-1.5,0-2.9,0.6-4,1.7c-1.1,1.1-1.7,2.5-1.7,4l0,45.7
		c0,3.1,2.5,5.7,5.7,5.7l16.2,0c0,0,0,0,0,0c1.5,0,2.9-0.6,4-1.7c1-1,1.6-2.4,1.7-3.9l0.6,0c1.2,0,2.4,0.2,3.5,0.7
		c0.2,0.1,0.4,0.2,0.5,0.2c1,0.5,1.8,1.1,2.6,1.8l5.4,5.4c2.6,2.4,6.1,3.8,9.7,3.8l15.7,0c0,0,0,0,0,0c3.7,0,7.1-1.4,9.7-4
		c1.9-1.9,3.2-4.2,3.7-6.8l1.1,0l19.6,19.6c2.5,2.5,5.7,4,9.2,4.2c2.3,0.1,4.4,1.1,6,2.7L158,187c1,1,2.4,1.6,3.8,1.6
		c1.4,0,2.8-0.5,3.8-1.6l0.3-0.4l24.3-24.3l0.1,0.1l0.4-0.4c1-1,1.6-2.4,1.6-3.8S191.7,155.4,190.6,154.4z M97,121.8
		c0.6-0.6,1.3-0.9,2.1-0.9c0.8,0,1.5,0.3,2.1,0.9l19.3,19.3c0.6,0.6,1.3,0.9,2.1,0.9c0,0,0,0,0,0c0.8,0,1.5-0.3,2.1-0.9
		c0.6-0.6,0.9-1.3,0.9-2.1c0-0.8-0.3-1.5-0.9-2.1l-28.7-28.7c-0.6-0.6-0.9-1.3-0.9-2.1c0-0.8,0.3-1.5,0.9-2.1c1-1,2.6-1.1,3.7-0.4
		l29.2,29.2c0.6,0.6,1.3,0.9,2.1,0.9c0,0,0,0,0,0c0.8,0,1.5-0.3,2.1-0.9c0.4-0.4,0.6-0.8,0.7-1.3c0.3-1,0-2.2-0.7-2.9l-28.7-28.7
		c-0.2-0.2-0.5-0.4-0.7-0.6l-3.5-3.5c-0.6-0.6-0.9-1.3-0.9-2.1c0-0.8,0.3-1.5,0.9-2.1c0.6-0.6,1.3-0.9,2.1-0.9c0,0,0,0,0,0
		c0.8,0,1.5,0.3,2.1,0.9l32.9,32.9c1.1,1.1,3.1,1.1,4.2,0c1.1-1.1,1.1-3,0-4.2l-28.8-28.8c-0.6-0.6-0.9-1.3-0.9-2.1s0.3-1.5,0.9-2.1
		c0.6-0.6,1.3-0.9,2.1-0.9c0,0,0,0,0,0c0.8,0,1.5,0.3,2.1,0.9l32.1,32.1c1.1,1.1,3.1,1.1,4.2,0c1.1-1.1,1.1-3,0-4.2l-5.7-5.7
		c0,0,0-0.1,0-0.1c2.9-1.2,6.3-0.6,8.6,1.7l11.1,11.1c1.6,1.6,2.5,3.7,2.5,6l0,7c0,4.1,1.6,7.9,4.5,10.8l12.1,12.1l-24.3,24.3
		L149,169.6c-2.6-2.6-6.1-4.2-9.8-4.4c-2.1-0.1-4-1-5.4-2.5L97,125.9C95.8,124.8,95.8,122.9,97,121.8z M106.2,41l0-3.9h33.9l0.1,3.9
		H106.2z M140.3,47.9l0.2,9v1.1c0,4.1,1.6,7.9,4.5,10.8l4.9,4.9c1.6,1.6,2.5,3.7,2.5,6l0,15.7c0,2.1-0.8,4.1-2.3,5.5
		c-0.8,0.8-1.7,1.4-2.7,1.8l0-8.2c0-0.8-0.3-1.5-0.9-2.1c-0.6-0.6-1.3-0.9-2.1-0.9c0,0,0,0,0,0c-0.8,0-1.5,0.3-2.1,0.9
		c-0.6,0.6-0.9,1.3-0.9,2.1l0,9.4l-20.7-20.7c-1.7-1.7-3.9-2.6-6.3-2.6c0,0,0,0,0,0c-2.4,0-4.6,0.9-6.2,2.6
		c-0.8,0.8-1.4,1.7-1.9,2.8c-1.9-1.1-4.1-1.4-6.2-1l0-10.5c0-2.1,0.7-4,2.1-5.6c2.4-2.8,3.8-6.4,3.8-10.1l0-2.1l0-8.9H140.3z
		 M51.6,100.6l0,45.2l-15.8,0l0-45.2L51.6,100.6z"/>
</g>
</svg>
