<?xml version="1.0" encoding="utf-8"?>
<!-- Generator: Adobe Illustrator 27.0.0, SVG Export Plug-In . SVG Version: 6.00 Build 0)  -->
<svg version="1.1" id="Layer_1" xmlns="http://www.w3.org/2000/svg" xmlns:xlink="http://www.w3.org/1999/xlink" x="0px" y="0px"
	 viewBox="0 0 234.1 234.1" style="enable-background:new 0 0 234.1 234.1;" xml:space="preserve">
<style type="text/css">
	.st0{fill:#56687B;}
	.st1{fill:#FFFFFF;}
</style>
<g>
	<path class="st0" d="M117.1,0c64.7,0,117.1,52.4,117.1,117.1c0,64.7-52.4,117.1-117.1,117.1C52.4,234.1,0,181.7,0,117.1
		C0,52.4,52.4,0,117.1,0z"/>
	<g id="FsCfkt.tif">
		<g>
			<path class="st1" d="M36.5,155c4.7-13.5,4.7-13.6,15.5-22.4c-3.6-4.2-6-9.1-5.3-14.6c0.5-3.8,1.8-7.7,3.9-10.9
				c4.4-6.9,13.3-9.8,21.1-7.7c8.6,2.3,13.9,8.9,15.2,19.3c3.8-2.1,7.4-4.2,11.4-6.5c-7.9-6.8-12-15.5-11.3-26
				c0.6-8.1,4.1-14.9,10.1-20.2c11.6-10.4,29.7-9.8,41,1.1c9.7,9.4,15,29.7-2.2,45.3c3.7,2.1,7.4,4.2,11.2,6.4
				c1-10.1,6.1-16.8,15.8-19.4c7.9-2.1,16.4,1.5,21,8.2c5.3,7.9,4.8,15.4-1.9,25.3c9.5,5.9,14.9,14.3,15.5,26c-3.3,0-6.4,0-9.6,0
				c-3.6-15-11.2-21.2-24.3-19.4c0.8,3.2,1.8,6.3,2.5,9.5c0.6,3.2,0.9,6.5,1.4,10c-3.6,0-6.7,0-10,0c-0.8-13.1-5.7-24-16.3-32
				c-7.5-5.7-16-8.4-25.4-8.1c-18.8,0.5-37.9,14.4-39.5,40.1c-3,0-6.1,0-10.2,0c1.3-6.6,2.5-13,3.8-19.4c-12-2.4-22,5.6-23.8,19.8
				c-3.2,0-6.5,0-9.8,0C36.5,157.8,36.5,156.4,36.5,155z M116.9,68.4c-10.9,0.1-20.1,9.3-20.1,20c0,11.3,9.3,20.6,20.4,20.5
				c10.9-0.1,20.2-9.3,20.1-20.1C137.4,77.5,128.1,68.3,116.9,68.4z M76.8,118.8c0-5.5-4.5-10.1-9.9-10.2
				c-5.6-0.1-10.3,4.6-10.3,10.2c0,5.6,4.8,10.3,10.3,10.2C72.4,128.9,76.9,124.3,76.8,118.8z M157.4,118.9
				c0.1,5.7,4.7,10.3,10.3,10.2c5.5-0.2,10-4.8,9.9-10.2c0-5.6-4.9-10.3-10.3-10.2C161.8,108.8,157.3,113.4,157.4,118.9z"/>
		</g>
	</g>
</g>
</svg>
