<?xml version="1.0" encoding="utf-8"?>
<!-- Generator: Adobe Illustrator 27.0.0, SVG Export Plug-In . SVG Version: 6.00 Build 0)  -->
<svg version="1.1" id="Layer_1" xmlns="http://www.w3.org/2000/svg" xmlns:xlink="http://www.w3.org/1999/xlink" x="0px" y="0px"
	 viewBox="0 0 234.1 234.1" style="enable-background:new 0 0 234.1 234.1;" xml:space="preserve">
<style type="text/css">
	.st0{fill:#92C740;}
	.st1{fill:#FFFFFF;}
</style>
<g>
	
		<ellipse transform="matrix(0.9944 -0.1053 0.1053 0.9944 -11.6774 12.9791)" class="st0" cx="117.1" cy="117.1" rx="117.1" ry="117.1"/>
	<g>
		<path class="st1" d="M177.4,142.5C177.4,142.5,177.4,142.5,177.4,142.5l-13.8,0c-1.1,0-2.1-0.4-2.8-1.2c-0.8-0.8-1.2-1.8-1.2-2.9
			l0-10.5h-0.9l0,4.3c0,2.2-1.8,4-4,4c0,0,0,0,0,0l-11.1,0c-1.1,0-2.1-0.4-2.8-1.2c-0.8-0.8-1.2-1.8-1.2-2.9l0-8.3c0-2.2,1.8-4,4-4
			c0,0,0,0,0,0c2.2,0,4,1.8,4,4l0,4.3l3.1,0l0-4.3c0-2.2,1.8-4,4-4h9c1.1,0,2.1,0.4,2.9,1.2c0.8,0.8,1.2,1.8,1.2,2.9l0,10.6l5.7,0
			l0-10.6c0-2.2,1.8-4,4-4c0,0,0,0,0,0c2.2,0,4,1.8,4,4l-0.1,14.6c0,1.1-0.4,2.1-1.2,2.8C179.5,142.1,178.5,142.5,177.4,142.5z"/>
		<path class="st1" d="M74.9,150.9c0,0-0.1,0-0.1,0c-9.6,0-18.8-4.2-25.1-11.3c-6.4-7.2-9.4-16.8-8.3-26.4
			C43.1,97.4,55.8,85,71.6,83.4c11.8-1.1,23.1,3.8,30.2,13.2c1.3,1.8,1,4.3-0.8,5.6c-1.8,1.3-4.3,1-5.6-0.8
			c-5.4-7.2-14.1-10.9-23.1-10c-12,1.2-21.6,10.7-23,22.6c-0.8,7.4,1.4,14.6,6.3,20.1c4.9,5.5,11.8,8.6,19.2,8.6c0,0,0.1,0,0.1,0
			c12,0,22.3-8.2,25.1-19.9c0.4-1.8,2.1-3.1,3.9-3.1h29c2.2,0,4,1.8,4,4c0,2.2-1.8,4-4,4h-26C102.4,141.6,89.6,150.9,74.9,150.9z"/>
		<path class="st1" d="M189,127.9c-2.2,0-4-1.8-4-4v-9.3h-81c-2.2,0-4-1.8-4-4s1.8-4,4-4h85c2.2,0,4,1.8,4,4v13.3
			C193,126.1,191.2,127.9,189,127.9z"/>
		<path class="st1" d="M65.5,128.8c-6.5,0-11.7-5.3-11.7-11.7c0-6.5,5.3-11.7,11.7-11.7s11.7,5.3,11.7,11.7
			C77.3,123.5,72,128.8,65.5,128.8z M65.5,113.4c-2,0-3.7,1.7-3.7,3.7s1.7,3.7,3.7,3.7s3.7-1.7,3.7-3.7S67.6,113.4,65.5,113.4z"/>
	</g>
</g>
</svg>
