<?xml version="1.0" encoding="utf-8"?>
<!-- Generator: Adobe Illustrator 26.0.3, SVG Export Plug-In . SVG Version: 6.00 Build 0)  -->
<svg version="1.1" id="Layer_1" xmlns="http://www.w3.org/2000/svg" xmlns:xlink="http://www.w3.org/1999/xlink" x="0px" y="0px"
	 viewBox="0 0 100 100" style="enable-background:new 0 0 100 100;" xml:space="preserve">
<style type="text/css">
	.st0{fill:#A1C7E3;}
	.st1{fill:#465661;}
</style>
<g>
	<g>
		<g>
			<path class="st0" d="M21,60.1c-0.8,0-1.5,0.7-1.5,1.5v24.5c0,0.8,9.3,7,9.3,6.2V61.7c0-0.8-0.7-1.5-1.5-1.5H21z"/>
			<path class="st0" d="M39.7,52.3c-0.8,0-1.5,0.7-1.5,1.5v42.5c0,0.8,9.3,0.8,9.3,0V53.8c0-0.8-0.7-1.5-1.5-1.5H39.7z"/>
			<path class="st0" d="M57.5,60.1c-0.8,0-1.5,0.7-1.5,1.5v33.9c0,0.8,9.3,0.8,9.3,0V61.7c0-0.8-0.7-1.5-1.5-1.5H57.5z"/>
			<path class="st0" d="M73,45.6c-0.8,0-1.5,0.7-1.5,1.5v44.5c0,0.8,9.3-5,9.3-5.8V47.1c0-0.8-0.7-1.5-1.5-1.5H73z"/>
			<path class="st1" d="M75,36.2c8.5-0.2,8.5-12.8,0-12.9c-5.2-0.2-8.4,6.3-5.2,10.3l-7.2,9.1c-2.2-0.8-4.8-0.1-6.4,1.4l-7.1-4
				c1.5-10.3-14.2-10.3-12.6,0l-7.1,4c-3.8-3.8-11-0.8-10.9,4.7c0.4,9.4,14.4,7.9,12.8-1.4l7.1-4c2.3,2.3,6.5,2.3,8.8,0l7.1,4
				c-0.9,3.9,2.3,7.9,6.3,7.8C65.8,55.5,69,49,65.8,45l7.2-9.1C73.7,36.1,74.3,36.2,75,36.2z M75,27.2c3.4,0,3.4,5.2,0,5.2
				C71.7,32.3,71.7,27.2,75,27.2z M25.1,51.5c-3.4,0-3.4-5.2,0-5.2C28.4,46.4,28.4,51.5,25.1,51.5z M42.8,41.4c-3.4,0-3.4-5.2,0-5.2
				C46.2,36.3,46.2,41.4,42.8,41.4z M60.6,51.5c-3.4,0-3.4-5.2,0-5.2C64,46.4,64,51.5,60.6,51.5z"/>
		</g>
	</g>
	<g>
		<g>
			<g>
				<path id="XMLID_00000031913702068338373070000007849152008866126232_" class="st0" d="M18.4,18.4c2.4-2.4-1.3-6.1-3.7-3.7
					C12.3,17.1,16,20.8,18.4,18.4z"/>
			</g>
		</g>
		<path id="XMLID_00000106833952881997088570000015809409274405175713_" class="st1" d="M11.4,22.5c-1.2-0.8-2.8-0.4-3.6,0.8
			c-6,9.4-8.6,20.8-7.5,32c4,41.4,55.9,59.8,85.1,30.1C115.1,56.8,96.4,3.9,55.4,0.3C44.2-0.9,32.9,1.8,23.4,7.7
			c-1.2,0.8-1.6,2.4-0.8,3.6c0.8,1.2,2.4,1.6,3.6,0.8C44,0.9,66.8,3.5,81.7,18.4c40.5,43.2-20.2,103.8-63.3,63.3
			C3.7,67,1.1,43.6,12.2,26.1C13,24.9,12.6,23.3,11.4,22.5z"/>
	</g>
</g>
</svg>
