<?xml version="1.0" encoding="utf-8"?>
<!-- Generator: Adobe Illustrator 26.0.3, SVG Export Plug-In . SVG Version: 6.00 Build 0)  -->
<svg version="1.1" id="Layer_1" xmlns="http://www.w3.org/2000/svg" xmlns:xlink="http://www.w3.org/1999/xlink" x="0px" y="0px"
	 viewBox="0 0 100 100" style="enable-background:new 0 0 100 100;" xml:space="preserve">
<style type="text/css">
	.st0{fill:#465661;}
	.st1{fill:#A1C7E3;}
</style>
<g>
	<path class="st0" d="M18.3,14.6c-0.8-0.8-2.2-1-3.2-0.4c-0.3,0.3-0.6,0.5-0.8,0.8c-0.6,1-0.5,2.4,0.4,3.2
		C17.1,20.7,20.7,17.1,18.3,14.6z"/>
	<path class="st0" d="M99.9,47.7C99.4,36.3,95,25.3,86.8,16.3l-0.6-0.6C75.1,3.8,58.4-2,42.4,0.6h0c-1.3,0.2-2.5,0.4-3.7,0.7
		C33.1,2.6,27.8,4.9,23,8c-1.9,1.7-0.3,5,2.2,4.5c3.4-2.3,7.2-4.1,11.1-5.4c-10.7,14.2-12,28.2-12.5,40.4H5.1c0.4-8,3-15.7,7.4-22.3
		C13,22.7,9.8,21,8,22.9c0,0,0,0,0,0c-3.1,4.7-5.3,9.8-6.6,15.2C1.2,39.1,1,40,0.8,41c-0.1,0.7-0.2,1.4-0.3,2
		c-0.1,0.4-0.1,0.9-0.2,1.3c0,0,0,0.1,0,0.1c-0.2,1.4-0.3,2.9-0.3,4.3c0,0,0,0.1,0,0.1c-0.3,12.5,4.1,25,13.1,34.8l0.6,0.6
		C24,95.3,39,101.1,53.9,99.8c12.3-1,23.8-6.5,32.3-15.5l0.6-0.6C96.2,73.6,100.5,60.6,99.9,47.7z M81,17.4c0,0-0.1,0.1-0.1,0.1
		c-2.7,2.1-5.6,3.9-8.7,5.3c-1.7-5.7-4.6-10.9-8.3-15.5c-0.1-0.1-0.1-0.1-0.2-0.2C70.1,9.2,76,12.7,81,17.4z M52.5,94.7V72.4
		c5.1,0.2,10.1,1.2,15,2.8C64,85.7,58.6,93.1,52.5,94.7z M67.4,24.8c-4.8,1.7-9.9,2.6-15,2.8V5.3C58.6,7,64,14.3,67.4,24.8z
		 M52.5,67.4V52.5h18.7c-0.1,6-0.9,12-2.3,17.9C63.6,68.6,58,67.6,52.5,67.4z M52.5,47.5V32.6c5.6-0.2,11.1-1.2,16.3-3
		c1.4,5.9,2.2,11.9,2.3,17.9H52.5z M47.5,5.3v22.2c-5.1-0.2-10.1-1.2-15-2.8C35.9,14.3,41.4,7,47.5,5.3z M32.5,75.2
		c4.8-1.7,9.9-2.6,15-2.8v22.2C41.4,93,35.9,85.7,32.5,75.2z M31.1,29.6c5.3,1.8,10.8,2.8,16.3,3v14.9H28.8
		C28.9,41.5,29.7,35.5,31.1,29.6z M47.5,52.5v14.9c-5.6,0.2-11.1,1.2-16.3,3c-1.4-5.9-2.2-11.9-2.4-17.9H47.5z M15.6,78.9
		C9.3,71.5,5.6,62.2,5.1,52.5h18.7c0.1,6.7,1,13.3,2.6,19.8C22.5,74,18.9,76.2,15.6,78.9z M19,82.5c2.7-2.1,5.7-4,8.8-5.4
		c1.8,5.8,4.7,11.1,8.5,15.8C29.9,90.8,23.9,87.2,19,82.5z M63.6,92.9c0.1-0.1,0.1-0.2,0.2-0.3c3.7-4.6,6.5-9.8,8.3-15.5
		c3.1,1.4,6,3.2,8.7,5.4c0,0,0.1,0,0.1,0.1C76,87.3,70.1,90.8,63.6,92.9z M84.4,78.9c0,0-0.1-0.1-0.1-0.1c-3.3-2.6-6.9-4.8-10.7-6.6
		c1.6-6.5,2.5-13.1,2.6-19.8h18.7C94.3,62.2,90.7,71.5,84.4,78.9z M76.2,47.5c-0.1-6.7-1-13.3-2.6-19.8c3.9-1.8,7.5-4,10.9-6.7
		c6.3,7.4,9.9,16.7,10.4,26.4H76.2z"/>
	<g>
		<g>
			<g>
				<path class="st1" d="M19.1,16.5c0.1,2.3-2.9,3.5-4.5,1.9c-0.9-0.8-1-2.2-0.4-3.2c0.2-0.3,0.5-0.6,0.8-0.8
					C16.8,13.2,19.2,14.5,19.1,16.5z"/>
			</g>
		</g>
	</g>
</g>
</svg>
