<?xml version="1.0" encoding="utf-8"?>
<!-- Generator: Adobe Illustrator 26.0.3, SVG Export Plug-In . SVG Version: 6.00 Build 0)  -->
<svg version="1.1" id="Layer_1" xmlns="http://www.w3.org/2000/svg" xmlns:xlink="http://www.w3.org/1999/xlink" x="0px" y="0px"
	 viewBox="0 0 50 50" style="enable-background:new 0 0 50 50;" xml:space="preserve">
<style type="text/css">
	.st0{fill:#465661;}
</style>
<g>
	<path class="st0" d="M28.1,14.3c0.1,2.6-4,2.6-4,0C24.1,11.8,28.1,11.7,28.1,14.3z"/>
	<path class="st0" d="M35.8,25.7V37c-0.7,0.3-1.2,1-1.2,1.9v1.2h-5.4v-1.2c0-0.8-0.5-1.5-1.2-1.9V25.7c0.7-0.3,1.2-1,1.2-1.8v-1.2
		h5.4v1.2C34.6,24.7,35.1,25.4,35.8,25.7z"/>
	<path class="st0" d="M23.3,25.7V37c-0.7,0.3-1.2,1-1.2,1.9v1.2h-6.2v-1.2c0-0.8-0.5-1.5-1.2-1.9V25.7c0.7-0.3,1.2-1,1.2-1.8v-1.2
		H22v1.2C22,24.7,22.6,25.4,23.3,25.7z"/>
	<path class="st0" d="M25,0C11.2,0,0,11.2,0,25c0,13.8,11.2,25,25,25c13.8,0,25-11.2,25-25C50,11.2,38.8,0,25,0z M25,47.4
		c-6.4,0-12.2-2.7-16.3-7c0-0.1,0-0.2,0-0.2l0-1.2c0-0.8,0.5-1.5,1.2-1.9V25.7c-0.7-0.3-1.2-1-1.2-1.8v-1.2H8.3
		c-0.4,0-0.8-0.3-0.8-0.8V19H7.5c-0.4,0-0.7-0.2-0.7-0.6s0.1-0.7,0.4-0.9l18.1-9.1c0.2-0.1,0.5-0.1,0.7,0l18.1,9.1
		c0.3,0.2,0.5,0.5,0.4,0.9c-0.1,0.4-0.4,0.6-0.8,0.6h-0.1v2.9c0,0.4-0.3,0.8-0.8,0.8h-1.2v1.2c0,0.8-0.5,1.5-1.2,1.8V37
		c0.7,0.3,1.2,1,1.2,1.9v1c0,0,0.8-0.9,0,0C37.6,44.5,31.6,47.4,25,47.4z"/>
</g>
</svg>
