<?xml version="1.0" encoding="utf-8"?>
<!-- Generator: Adobe Illustrator 26.0.3, SVG Export Plug-In . SVG Version: 6.00 Build 0)  -->
<svg version="1.1" id="Layer_1" xmlns="http://www.w3.org/2000/svg" xmlns:xlink="http://www.w3.org/1999/xlink" x="0px" y="0px"
	 viewBox="0 0 100 100" style="enable-background:new 0 0 100 100;" xml:space="preserve">
<style type="text/css">
	.st0{fill:#465661;}
	.st1{fill:#A1C7E3;}
</style>
<g>
	<path class="st0" d="M85.2,14.6C69.3-1.8,42.3-4.8,23.3,7.6c-1.2,0.8-1.6,2.4-0.8,3.6c0.8,1.2,2.4,1.6,3.6,0.8
		c43.7-27.2,91.1,29.4,57,67.6c0.2-2.3-0.1-4.9-2.5-5.8V51.3c2.6-1,2.6-3.8,2.5-6.1c1.3-0.1,4,0.5,4-1.5c0,0,0-5.8,0-5.8
		c1.6,0.2,2.4-2.2,0.8-2.9c0,0-36.2-18.2-36.2-18.2c-0.4-0.2-0.9-0.2-1.4,0L14.2,34.9c-1.5,0.7-0.8,3.1,0.8,2.9v5.8
		c0,1.4,1.3,1.7,2.5,1.5c-0.1,2.3-0.1,5.2,2.5,6.1v22.5c-2.8,1.1-2.5,4.3-2.6,6.7C3.5,65.8,1.2,43.1,12.1,26
		c0.8-1.2,0.4-2.8-0.8-3.6C10,21.6,8.4,22,7.6,23.2c-12.4,19-9.4,46.1,6.9,62C63.1,130.1,130.1,63.1,85.2,14.6z M46.4,51.3v22.5
		c-2.5,1-2.6,3.8-2.5,6.1H31.6c0.1-2.3,0.1-5.2-2.5-6.1V51.3c2.6-1,2.6-3.8,2.5-6.1H44C43.8,47.5,43.9,50.4,46.4,51.3z M73.7,83
		c2,0,2,3.1,0,3.1c0,0-45.6,0-45.6,0c-2,0-2-3.1,0-3.1C28.2,83,73.7,83,73.7,83z M48,48.6c-1.5,0-0.8-2.6-1-3.4h8
		c-0.1,0.8,0.5,3.4-0.9,3.4C54.1,48.6,48,48.6,48,48.6z M52.6,51.6v21.9h-3.1V51.6H52.6z M48,76.6h6.1c1.5,0,0.8,2.6,0.9,3.4h-8
		C47.2,79.1,46.5,76.5,48,76.6z M71.4,51.3v22.5c-2.5,1-2.6,3.8-2.5,6.1H58.1c0.1-2.3,0.1-5.2-2.5-6.1V51.3c2.6-1,2.6-3.8,2.5-6.1
		h10.8C68.8,47.5,68.9,50.4,71.4,51.3z M73,48.6c-1.5,0-0.8-2.6-0.9-3.4h8c-0.1,0.8,0.5,3.4-0.9,3.4C79.1,48.6,73,48.6,73,48.6z
		 M77.6,51.6v21.9h-3.1V51.6H77.6z M73,76.6h6.1c1.5,0,0.8,2.6,0.9,3.4h-8C72.2,79.1,71.5,76.5,73,76.6z M59.9,90.7
		c0,0.9-0.7,1.5-1.5,1.5H43.2c-0.8,0-1.6-0.7-1.5-1.5c0-0.8,0.7-1.5,1.5-1.5h15.1C59.2,89.2,59.9,89.9,59.9,90.7z M28.6,47.6
		c0,0.5-0.4,0.9-0.9,0.9h-6.1c-1.5,0-0.8-2.6-0.9-3.4h8V47.6z M26.1,51.6v21.9H23V51.6H26.1z M21.5,76.6h6.1c1.5,0,0.8,2.6,0.9,3.4
		H23C21.3,80.2,19.3,77.1,21.5,76.6z M18.1,42.1v-4.3h15.8c2,0,2-3.1,0-3.1c0,0-12.5,0-12.5,0L51,19.8l29.7,14.9h-31
		c-0.8,0-1.5,0.7-1.5,1.5c0,0.8,0.7,1.5,1.5,1.5H84v4.3H18.1z"/>
	<path class="st1" d="M16.4,19c3.4,0,3.4-5.2,0-5.2C13,13.8,13,19,16.4,19z"/>
</g>
</svg>
