<?xml version="1.0" encoding="utf-8"?>
<!-- Generator: Adobe Illustrator 26.0.3, SVG Export Plug-In . SVG Version: 6.00 Build 0)  -->
<svg version="1.1" id="Layer_1" xmlns="http://www.w3.org/2000/svg" xmlns:xlink="http://www.w3.org/1999/xlink" x="0px" y="0px"
	 viewBox="0 0 100 100" style="enable-background:new 0 0 100 100;" xml:space="preserve">
<style type="text/css">
	.st0{fill:#A1C7E3;}
	.st1{fill:#465661;}
</style>
<g>
	<path class="st0" d="M73.3,41.7h-15v-15c0-0.9-0.7-1.7-1.7-1.7H43.4c-0.9,0-1.7,0.7-1.7,1.7v15h-15c-0.9,0-1.7,0.7-1.7,1.7v13.3
		c0,0.9,0.7,1.7,1.7,1.7h15v15c0,0.9,0.7,1.7,1.7,1.7h13.3c0.9,0,1.7-0.7,1.7-1.7v-15h15c0.9,0,1.7-0.7,1.7-1.7V43.4
		C75,42.4,74.3,41.7,73.3,41.7z"/>
	<g>
		<path id="XMLID_29_" class="st1" d="M11.3,22.5c-1.2-0.8-2.8-0.4-3.6,0.8c-6,9.4-8.6,20.8-7.5,32C4.5,96.8,56,115.1,85.4,85.4
			C115.1,56.2,96.7,4.3,55.3,0.3c-11.2-1.2-22.5,1.4-32,7.4c-1.2,0.8-1.6,2.4-0.8,3.6c0.8,1.2,2.4,1.6,3.6,0.8
			C44,0.9,66.8,3.4,81.7,18.3c40.4,43.4-20,103.8-63.4,63.4C3.7,67,1.1,43.6,12.2,26.1C12.9,24.9,12.6,23.3,11.3,22.5z"/>
		<path id="XMLID_28_" class="st0" d="M18.4,18.3c2.4-2.5-1.2-6.1-3.7-3.7C12.3,17.1,15.9,20.7,18.4,18.3z"/>
	</g>
</g>
</svg>
