<?xml version="1.0" encoding="UTF-8"?>
<svg width="700px" height="700px" viewBox="0 0 700 700" version="1.1" xmlns="http://www.w3.org/2000/svg" xmlns:xlink="http://www.w3.org/1999/xlink">
    <!-- Generator: Sketch 63.1 (92452) - https://sketch.com -->
    <title>Custom Preset</title>
    <desc>Created with Sketch.</desc>
    <g id="Custom-Preset" stroke="none" stroke-width="1" fill="none" fill-rule="evenodd">
        <g id="health-security" transform="translate(84.000000, 0.000000)" fill-rule="nonzero">
            <circle id="Oval" fill="#87D0CE" cx="440.5" cy="424.5" r="13.5"></circle>
            <path d="M526.372978,117.304688 C522.682489,114.707031 518.035208,114.160156 513.79798,115.664062 C490.561573,124.140625 465.958318,128.515625 440.671638,128.515625 C405.133603,128.515625 347.999377,107.1875 277.470045,5.87890625 C274.873035,2.1875 270.772493,0 266.261896,0 L265.988526,0 C261.477929,0 257.240702,2.1875 254.780377,5.87890625 C184.251045,107.1875 127.116819,128.515625 91.5787834,128.515625 C66.2921044,128.515625 41.6888492,124.140625 18.4524414,115.664062 C14.2152141,114.160156 9.5679326,114.707031 5.87744431,117.304688 C2.18695602,119.902344 0,124.003906 0,128.515625 L0,314.453125 C0,389.921875 21.7328755,464.570312 62.7383009,530.605469 C103.607042,596.367188 163.064908,652.148438 234.551033,691.933594 C244.255651,697.402344 255.190431,700 265.988526,700 C276.923306,700 287.721402,697.265625 297.426019,691.933594 C368.912144,652.148438 428.370011,596.367188 469.238752,530.605469 C510.244177,464.707031 531.977052,389.921875 531.977052,314.453125 L531.977052,128.515625 C532.250422,124.003906 530.063466,119.902344 526.372978,117.304688 Z M504.913472,314.453125 C504.913472,384.726562 484.684128,454.453125 446.275713,516.113281 C407.730613,577.910156 351.82655,630.410156 284.304283,668.007812 C273.232818,674.160156 259.017604,674.160156 247.946139,668.007812 C180.423872,630.410156 124.519809,577.910156 85.9747086,516.113281 C47.7029782,454.453125 27.3369503,384.726562 27.3369503,314.453125 L27.3369503,147.246094 C48.1130325,152.988281 69.5725385,155.859375 91.5787834,155.859375 C161.424691,155.859375 223.479569,94.4726562 266.125211,36.9140625 C287.311347,65.4882812 308.907538,89.2773438 330.503729,107.734375 C367.681981,139.589844 404.723549,155.859375 440.671638,155.859375 C462.677883,155.859375 484.137389,152.988281 504.913472,147.246094 L504.913472,314.453125 Z" id="Shape" fill="#404D59"></path>
            <path d="M322.409594,465.464961 L322.409594,405.465452 L382.346863,405.465452 C389.856089,405.465452 396,399.315161 396,391.798138 L396,307.334137 C396,299.817114 389.856089,293.666823 382.346863,293.666823 L322.409594,293.666823 L322.409594,233.667314 C322.409594,226.150291 316.265683,220 308.756458,220 L224.243542,220 C216.734317,220 210.590406,226.150291 210.590406,233.667314 L210.590406,293.53015 L150.653137,293.53015 C143.143911,293.53015 137,299.680441 137,307.197464 L137,391.661465 C137,399.178488 143.143911,405.328779 150.653137,405.328779 L210.590406,405.328779 L210.590406,465.328288 C210.590406,472.845311 216.734317,478.997837 224.243542,478.997837 L308.756458,478.997837 C316.402214,479.132276 322.409594,472.981984 322.409594,465.464961 Z M295.103321,391.798138 L295.103321,451.797647 L238.03321,451.797647 L238.03321,391.798138 C238.03321,384.281116 231.889299,378.130824 224.380074,378.130824 L164.442804,378.130824 L164.442804,321.001451 L224.380074,321.001451 C231.889299,321.001451 238.03321,314.85116 238.03321,307.334137 L238.03321,247.334628 L295.103321,247.334628 L295.103321,307.334137 C295.103321,314.85116 301.247232,321.001451 308.756458,321.001451 L368.693727,321.001451 L368.693727,378.130824 L308.756458,378.130824 C301.247232,378.130824 295.103321,384.281116 295.103321,391.798138 Z" id="Shape" fill="#404D59"></path>
            <path d="M423.962075,468.246759 C417.144216,465.09691 408.962785,468.109809 405.826569,475.094256 C383.463991,524.533181 346.238479,567.67241 298.104393,599.855645 C292.377391,603.690243 290.332033,611.359439 293.468248,617.522186 C297.149892,624.780533 306.422181,627.245631 313.24004,622.726284 C365.6012,587.804051 406.235641,540.693274 430.779934,486.4611 C433.91615,479.476653 430.779934,471.396607 423.962075,468.246759 L423.962075,468.246759 Z" id="Path" fill="#87D0CE"></path>
        </g>
    </g>
</svg>