<?xml version="1.0" encoding="UTF-8"?>
<svg width="700px" height="700px" viewBox="0 0 700 700" version="1.1" xmlns="http://www.w3.org/2000/svg" xmlns:xlink="http://www.w3.org/1999/xlink">
    <!-- Generator: Sketch 63.1 (92452) - https://sketch.com -->
    <title>Custom Preset</title>
    <desc>Created with Sketch.</desc>
    <g id="Custom-Preset" stroke="none" stroke-width="1" fill="none" fill-rule="evenodd">
        <g id="Artwork-456-copy" fill-rule="nonzero">
            <path d="M391,307.648475 L391,571.340289 C391,578.823435 384.957687,585 377.375176,585 L320.624824,585 C313.16079,585 307,578.942215 307,571.340289 L307,215 C315.411848,219.038523 324.534556,221.770465 334.131171,223.195827 L334.131171,557.799358 L363.750353,557.799358 L363.750353,307.648475 C363.750353,300.165329 369.792666,293.988764 377.375176,293.988764 C384.957687,293.988764 391,300.165329 391,307.648475 Z" id="Path" fill="#404D59"></path>
            <path d="M439.182452,639 L261.698431,639 C254.194073,639 248,632.951684 248,625.36164 L248,571.63836 C248,564.166911 254.074956,558 261.698431,558 L439.301569,558 C446.805927,558 453,564.048316 453,571.63836 L453,585.27672 C453,592.74817 446.925044,598.915081 439.301569,598.915081 C431.797211,598.915081 425.603138,592.866764 425.603138,585.27672 L425.603138,585.158126 L275.277745,585.158126 L275.277745,611.72328 L439.182452,611.72328 C446.68681,611.72328 452.880883,617.771596 452.880883,625.36164 C452.880883,632.951684 446.805927,639 439.182452,639 Z" id="Path" fill="#404D59"></path>
            <path d="M529.35474,692 L168.64526,692 C161.170031,692 155,685.951684 155,678.36164 L155,624.63836 C155,617.166911 161.051376,611 168.64526,611 L529.35474,611 C536.829969,611 543,617.048316 543,624.63836 L543,678.36164 C543,685.951684 536.829969,692 529.35474,692 Z M182.29052,664.841874 L515.828135,664.841874 L515.828135,638.27672 L182.29052,638.27672 L182.29052,664.841874 Z" id="Shape" fill="#404D59"></path>
            <g id="Group" transform="translate(385.000000, 117.000000)" fill="#404D59">
                <path d="M26.9075873,0 L35.5927201,0 L35.5927201,26.8826087 L24.7660477,26.8826087 L13.7014265,26.8826087 C6.20603788,26.8826087 0.0193679292,20.8956522 0.0193679292,13.3826087 C0.0193679292,5.98695652 6.08706345,0 13.7014265,0 L13.7014265,0 L26.9075873,0 Z" id="Path"></path>
                <path d="M224.762051,13.5 C224.762051,20.8956522 218.694356,27 211.079993,27 L211.079993,27 L88.5363379,26.8826087 L62.0050418,26.8826087 C63.194786,21.0130435 63.7896581,14.9086957 63.7896581,8.68695652 C63.7896581,5.75217391 63.6706837,2.8173913 63.4327349,0 L89.6071077,0 L211.198967,0.117391304 C218.575381,0.117391304 224.762051,6.10434783 224.762051,13.5 Z" id="Path"></path>
            </g>
            <g id="Group" transform="translate(89.000000, 116.000000)" fill="#404D59">
                <path d="M164.010471,27.7666667 L137.50733,27.7666667 L13.6675393,27.65 C6.18010471,27.65 -1.68893404e-14,21.7 -1.68893404e-14,14.2333333 C-1.68893404e-14,6.88333333 6.06125654,0.933333333 13.6675393,0.933333333 L136.556545,1.05 L162.82199,1.05 C162.584293,3.96666667 162.465445,6.88333333 162.465445,9.8 C162.346597,15.9833333 162.940838,21.9333333 164.010471,27.7666667 Z" id="Path"></path>
                <path d="M226.168063,14.4666667 C226.168063,14.7 226.168063,14.9333333 226.168063,15.2833333 C225.811518,22.2833333 219.86911,27.8833333 212.619372,27.8833333 L212.619372,27.8833333 L201.328796,27.8833333 L190.513613,27.8833333 L190.513613,1.05 L199.189529,1.05 L212.619372,1.05 C219.037173,1.05 224.38534,5.36666667 225.811518,11.2 C226.049215,12.25 226.168063,13.3 226.168063,14.4666667 Z" id="Path"></path>
            </g>
            <path d="M525.559552,343 C524.020898,343 522.482244,342.762428 521.061948,342.168498 C513.960468,339.673993 510.291371,331.834118 512.776888,324.825746 L583.43661,125.027734 C585.330338,119.563579 590.419731,116 596.219273,116 C596.219273,116 596.219273,116 596.219273,116 C601.900457,116 606.98985,119.563579 609.001936,125.027734 L665.221982,281.944008 C667.7075,288.952381 664.038403,296.792255 657.055281,299.286761 C650.072159,301.781266 642.260532,298.098901 639.775014,291.090529 L596.455989,169.928833 L538.460573,333.85348 C536.330129,339.555207 531.122377,343 525.559552,343 Z" id="Path" fill="#404D59"></path>
            <path d="M597.059274,435 C569.568867,435 543.863552,424.266055 524.346553,404.944954 C504.829554,385.504587 494.119006,359.623853 494,332.073394 C494,328.495413 495.428073,324.917431 497.927201,322.412844 C500.426329,319.788991 503.996512,318.357798 507.566694,318.357798 L686.313841,318 C686.313841,318 686.313841,318 686.313841,318 C689.884024,318 693.335201,319.431193 695.953335,321.93578 C698.571469,324.440367 699.999771,328.018349 699.999771,331.59633 C700.118548,388.486239 653.944185,434.880734 597.17828,435 C597.17828,435 597.059274,435 597.059274,435 Z M522.561462,345.550459 C525.298602,360.577982 532.557973,374.53211 543.62554,385.504587 C557.90627,399.816514 576.947245,407.688073 597.059274,407.688073 C597.059274,407.688073 597.17828,407.688073 597.17828,407.688073 C634.30818,407.568807 665.249764,380.733945 671.557086,345.311927 L522.561462,345.550459 Z" id="Shape" fill="#404D59"></path>
            <path d="M30.5595516,343 C29.0208977,343 27.4822438,342.762428 26.0619479,342.168498 C18.9604683,339.673993 15.2913706,331.834118 17.7768884,324.825746 L88.4366098,125.027734 C90.3303377,119.563579 95.4197313,116 101.219273,116 C101.219273,116 101.219273,116 101.219273,116 C106.900457,116 111.98985,119.563579 114.001936,125.027734 L170.221982,282.062794 C172.7075,289.071167 169.038403,296.911041 162.055281,299.405547 C155.072159,301.900052 147.260532,298.217687 144.775014,291.209314 L101.455989,170.047619 L43.4605727,333.972266 C41.3301289,339.555207 36.1223772,343 30.5595516,343 Z" id="Path" fill="#404D59"></path>
            <path d="M102.940268,435 C75.4498611,435 49.7445456,424.276986 30.2275469,404.97556 C10.8295542,385.435845 0,359.581466 0,332.059063 C0,328.484725 1.42807308,324.910387 3.92720097,322.40835 C6.42632886,319.787169 9.99651156,318.357434 13.5666943,318.357434 L192.313841,318 C192.313841,318 192.313841,318 192.313841,318 C195.884024,318 199.335201,319.429735 201.953335,321.931772 C204.571469,324.433809 205.999771,328.008147 205.999771,331.582485 C206.118548,388.41446 159.944185,434.761711 103.17828,434.880855 C103.17828,435 103.059274,435 102.940268,435 Z M28.4424555,345.641548 C31.1795956,360.653768 38.4389671,374.593686 49.5065335,385.55499 C63.7872643,399.852342 82.8282387,407.715886 102.940268,407.715886 C102.940268,407.715886 103.059274,407.715886 103.059274,407.715886 C140.189174,407.596741 171.130757,380.789206 177.43808,345.403259 L28.4424555,345.641548 Z" id="Shape" fill="#404D59"></path>
            <path d="M473.762808,116.223909 C469.137571,51.3519924 415.057875,0.118595825 349,0 C282.942125,0 228.862429,51.2333966 224.355787,115.986717 C224.118596,118.951613 224,121.916509 224,125 C224,131.166983 224.474383,137.21537 225.304554,143.145161 C232.064516,189.397533 264.203985,227.466793 307.017078,242.765655 C315.674573,245.849146 324.806452,247.983871 334.175522,249.169829 C339.037951,249.762808 344.018975,250 349,250 C411.737192,250 463.800759,203.747628 472.695446,143.382353 C473.525617,137.452562 474,131.285579 474,125 C474,122.035104 473.881404,119.070209 473.762808,116.223909 Z M349,223.908918 C344.018975,223.908918 339.037951,223.553131 334.175522,222.841556 C324.56926,221.418406 315.437381,218.572106 307.017078,214.658444 C278.672676,201.375712 257.681214,174.928843 251.751423,143.263757 C250.684061,137.333966 250.091082,131.285579 250.091082,125 C250.091082,122.035104 250.209677,118.951613 250.446869,116.105313 C254.95351,65.5834915 297.410816,26.0910816 349,26.0910816 C400.70778,26.0910816 443.04649,65.7020873 447.553131,116.223909 C447.790323,119.188805 447.908918,122.035104 447.908918,125 C447.908918,131.285579 447.315939,137.452562 446.129981,143.382353 C437.591082,189.160342 397.387097,223.908918 349,223.908918 Z" id="Shape" fill="#404D59"></path>
            <path d="M416.140234,101.333333 L373.587646,101.333333 L373.587646,58.7451963 C373.587646,56.1353383 371.45409,54 368.846411,54 L331.035058,54 C328.427379,54 326.293823,56.1353383 326.293823,58.7451963 L326.293823,101.333333 L283.741235,101.333333 C281.133556,101.333333 279,103.468672 279,106.07853 L279,143.92147 C279,146.531328 281.133556,148.666667 283.741235,148.666667 L326.293823,148.666667 L326.293823,191.254804 C326.293823,193.864662 328.427379,196 331.035058,196 L368.964942,196 C371.572621,196 373.706177,193.864662 373.706177,191.254804 L373.706177,148.666667 L416.258765,148.666667 C418.866444,148.666667 421,146.531328 421,143.92147 L421,106.07853 C420.881469,103.468672 418.747913,101.333333 416.140234,101.333333 Z" id="Path" fill="#95D4D1"></path>
        </g>
    </g>
</svg>