<?xml version="1.0" encoding="UTF-8"?>
<svg width="700px" height="700px" viewBox="0 0 700 700" version="1.1" xmlns="http://www.w3.org/2000/svg" xmlns:xlink="http://www.w3.org/1999/xlink">
    <!-- Generator: Sketch 63.1 (92452) - https://sketch.com -->
    <title>Custom Preset</title>
    <desc>Created with Sketch.</desc>
    <g id="Custom-Preset" stroke="none" stroke-width="1" fill="none" fill-rule="evenodd">
        <g id="Health-Governance-" fill-rule="nonzero">
            <path d="M350.5,189 C354.01,189 357.52,187.515 360.085,185.085 C362.65,182.655 364,179.145 364,175.5 C364,171.855 362.515,168.48 360.085,165.915 C357.655,163.35 354.145,162 350.5,162 C346.855,162 343.48,163.485 340.915,165.915 C338.35,168.345 337,171.855 337,175.5 C337,179.145 338.485,182.52 340.915,185.085 C343.345,187.65 346.99,189 350.5,189 Z" id="Path" fill="#87D0CE"></path>
            <path d="M686.328125,617.960738 L669.921875,617.960738 L669.921875,576.941108 C669.921875,569.420842 663.769531,563.267897 656.25,563.267897 L648.046875,563.267897 L648.046875,541.664225 C648.046875,526.897158 639.023438,514.181072 626.171875,508.711788 L626.171875,462.63307 C626.171875,455.112804 620.019531,448.959859 612.5,448.959859 C604.980469,448.959859 598.828125,455.112804 598.828125,462.63307 L598.828125,505.840414 L571.484375,505.840414 L571.484375,311.680828 L598.828125,311.680828 L598.828125,355.982029 C598.828125,363.502295 604.980469,369.65524 612.5,369.65524 C620.019531,369.65524 626.171875,363.502295 626.171875,355.982029 L626.171875,308.946186 C639.023438,303.476902 648.046875,290.760816 648.046875,275.993749 L648.046875,254.253345 L656.25,254.253345 C663.769531,254.253345 669.921875,248.1004 669.921875,240.580135 L669.921875,188.621936 L671.289062,188.621936 C677.578125,188.621936 683.183594,184.246508 684.550781,178.093564 C686.054688,171.940619 683.046875,165.51421 677.441406,162.779568 L356.152344,1.43568708 C352.324219,-0.47856236 347.675781,-0.47856236 343.847656,1.43568708 L22.5585938,162.779568 C16.953125,165.650942 13.9453125,171.940619 15.4492188,178.093564 C16.953125,184.246508 22.421875,188.621936 28.7109375,188.621936 L30.078125,188.621936 L30.078125,240.580135 C30.078125,248.1004 36.2304688,254.253345 43.75,254.253345 L51.953125,254.253345 L51.953125,275.857017 C51.953125,290.624084 60.9765625,303.34017 73.828125,308.809454 L73.828125,508.575056 C60.9765625,514.04434 51.953125,526.760426 51.953125,541.527493 L51.953125,563.267897 L43.75,563.267897 C36.2304688,563.267897 30.078125,569.420842 30.078125,576.941108 L30.078125,617.960738 L13.671875,617.960738 C6.15234375,617.960738 0,624.113683 0,631.633949 L0,686.32679 C0,693.847055 6.15234375,700 13.671875,700 L686.328125,700 C693.847656,700 700,693.847055 700,686.32679 L700,631.633949 C700,624.113683 693.847656,617.960738 686.328125,617.960738 Z M612.226562,533.186835 C616.875,533.186835 620.703125,537.015334 620.703125,541.664225 L620.703125,563.267897 L549.609375,563.267897 L549.609375,541.664225 C549.609375,537.015334 553.4375,533.186835 558.085938,533.186835 L612.226562,533.186835 Z M491.230469,563.267897 L491.230469,541.664225 C491.230469,526.897158 482.207031,514.181072 469.355469,508.711788 L469.355469,308.809454 C482.207031,303.34017 491.230469,290.624084 491.230469,275.857017 L491.230469,254.253345 L522.265625,254.253345 L522.265625,275.857017 C522.265625,290.624084 531.289062,303.34017 544.140625,308.809454 L544.140625,508.575056 C531.289062,514.04434 522.265625,526.760426 522.265625,541.527493 L522.265625,563.267897 L491.230469,563.267897 Z M334.550781,563.267897 L334.550781,541.664225 C334.550781,526.897158 325.527344,514.181072 312.675781,508.711788 L312.675781,308.809454 C325.527344,303.34017 334.550781,290.624084 334.550781,275.857017 L334.550781,254.253345 L365.585937,254.253345 L365.585937,275.857017 C365.585937,290.624084 374.609375,303.34017 387.460937,308.809454 L387.460937,508.575056 C374.609375,514.04434 365.585937,526.760426 365.585937,541.527493 L365.585937,563.267897 L334.550781,563.267897 Z M177.734375,563.267897 L177.734375,541.664225 C177.734375,526.897158 168.710938,514.181072 155.859375,508.711788 L155.859375,308.809454 C168.710938,303.34017 177.734375,290.624084 177.734375,275.857017 L177.734375,254.253345 L208.769531,254.253345 L208.769531,275.857017 C208.769531,290.624084 217.792969,303.34017 230.644531,308.809454 L230.644531,508.575056 C217.792969,514.04434 208.769531,526.760426 208.769531,541.527493 L208.769531,563.267897 L177.734375,563.267897 Z M101.171875,311.680828 L128.515625,311.680828 L128.515625,505.840414 L101.171875,505.840414 L101.171875,311.680828 Z M257.988281,311.680828 L285.332031,311.680828 L285.332031,505.840414 L257.988281,505.840414 L257.988281,311.680828 Z M307.207031,275.857017 C307.207031,280.505909 303.378906,284.334408 298.730469,284.334408 L244.453125,284.334408 C239.804687,284.334408 235.976562,280.505909 235.976562,275.857017 L235.976562,254.253345 L307.070312,254.253345 L307.207031,275.857017 L307.207031,275.857017 Z M236.113281,541.664225 C236.113281,537.015334 239.941406,533.186835 244.589844,533.186835 L298.867187,533.186835 C303.515625,533.186835 307.34375,537.015334 307.34375,541.664225 L307.34375,563.267897 L236.25,563.267897 L236.25,541.664225 L236.113281,541.664225 Z M414.667969,311.680828 L442.011719,311.680828 L442.011719,505.840414 L414.667969,505.840414 L414.667969,311.680828 Z M463.886719,275.857017 C463.886719,280.505909 460.058594,284.334408 455.410156,284.334408 L401.132812,284.334408 C396.484375,284.334408 392.65625,280.505909 392.65625,275.857017 L392.65625,254.253345 L463.75,254.253345 L463.75,275.857017 L463.886719,275.857017 Z M392.792969,541.664225 C392.792969,537.015334 396.621094,533.186835 401.269531,533.186835 L455.546875,533.186835 C460.195312,533.186835 464.023437,537.015334 464.023437,541.664225 L464.023437,563.267897 L392.929687,563.267897 L392.792969,541.664225 L392.792969,541.664225 Z M620.703125,275.857017 C620.703125,280.505909 616.875,284.334408 612.226562,284.334408 L557.949219,284.334408 C553.300781,284.334408 549.472656,280.505909 549.472656,275.857017 L549.472656,254.253345 L620.566406,254.253345 L620.566406,275.857017 L620.703125,275.857017 Z M295.722656,188.621936 C303.242188,188.621936 309.394531,182.468991 309.394531,174.948725 C309.394531,167.42846 303.242188,161.275515 295.722656,161.275515 L86.40625,161.275515 L350,28.9188397 L613.59375,161.275515 L395.117188,161.275515 C387.597656,161.275515 381.445312,167.42846 381.445312,174.948725 C381.445312,182.468991 387.597656,188.621936 395.117188,188.621936 L642.578125,188.621936 L642.578125,226.906925 L57.421875,226.906925 L57.421875,188.621936 L295.722656,188.621936 Z M150.390625,254.253345 L150.390625,275.857017 C150.390625,280.505909 146.5625,284.334408 141.914062,284.334408 L87.7734375,284.334408 C83.125,284.334408 79.296875,280.505909 79.296875,275.857017 L79.296875,254.253345 L150.390625,254.253345 Z M79.296875,541.664225 C79.296875,537.015334 83.125,533.186835 87.7734375,533.186835 L142.050781,533.186835 C146.699219,533.186835 150.527344,537.015334 150.527344,541.664225 L150.527344,563.267897 L79.296875,563.267897 L79.296875,541.664225 Z M57.421875,590.614318 L642.578125,590.614318 L642.578125,617.960738 L57.421875,617.960738 L57.421875,590.614318 Z M672.65625,672.653579 L27.34375,672.653579 L27.34375,645.307159 L672.65625,645.307159 L672.65625,672.653579 Z" id="Shape" fill="#455560"></path>
            <path d="M612.5,395 C608.99,395 605.48,396.485 602.915,398.915 C600.35,401.345 599,404.855 599,408.5 C599,412.145 600.485,415.52 602.915,418.085 C605.345,420.65 608.855,422 612.5,422 C616.145,422 619.52,420.515 622.085,418.085 C624.65,415.655 626,412.145 626,408.5 C626,404.855 624.515,401.48 622.085,398.915 C619.655,396.35 616.01,395 612.5,395 Z" id="Path" fill="#87D0CE"></path>
            <circle id="Oval" fill="#FFFFFF" cx="350" cy="409" r="71"></circle>
            <g id="Group" transform="translate(262.000000, 317.000000)">
                <path d="M91,0.682835821 C40.7789474,0.682835821 0,41.3798507 0,91.5 C0,141.620149 40.7789474,182.317164 91,182.317164 C141.221053,182.317164 182,141.620149 182,91.5 C182,41.3798507 141.221053,0.682835821 91,0.682835821 Z M91,158.554478 C53.9157895,158.554478 23.8105263,128.509701 23.8105263,91.5 C23.8105263,54.4902985 53.9157895,24.4455224 91,24.4455224 C128.084211,24.4455224 158.189474,54.4902985 158.189474,91.5 C158.189474,128.509701 127.947368,158.554478 91,158.554478 Z" id="Shape" fill="#455560"></path>
                <path d="M131.231579,77.1604478 L105.368421,77.1604478 L105.368421,51.3492537 C105.368421,49.7104478 104.136842,48.4813433 102.494737,48.4813433 L79.5052632,48.4813433 C77.8631579,48.4813433 76.6315789,49.7104478 76.6315789,51.3492537 L76.6315789,77.1604478 L50.7684211,77.1604478 C49.1263158,77.1604478 47.8947368,78.3895522 47.8947368,80.0283582 L47.8947368,102.971642 C47.8947368,104.610448 49.1263158,105.839552 50.7684211,105.839552 L76.6315789,105.839552 L76.6315789,131.650746 C76.6315789,133.289552 77.8631579,134.518657 79.5052632,134.518657 L102.494737,134.518657 C104.136842,134.518657 105.368421,133.289552 105.368421,131.650746 L105.368421,105.839552 L131.231579,105.839552 C132.873684,105.839552 134.105263,104.610448 134.105263,102.971642 L134.105263,80.0283582 C134.105263,78.3895522 132.736842,77.1604478 131.231579,77.1604478 Z" id="Path" fill="#96D5D2"></path>
            </g>
        </g>
    </g>
</svg>