<?xml version="1.0" encoding="UTF-8"?>
<svg width="700px" height="700px" viewBox="0 0 700 700" version="1.1" xmlns="http://www.w3.org/2000/svg" xmlns:xlink="http://www.w3.org/1999/xlink">
    <!-- Generator: Sketch 63.1 (92452) - https://sketch.com -->
    <title>Custom Preset</title>
    <desc>Created with Sketch.</desc>
    <g id="Custom-Preset" stroke="none" stroke-width="1" fill="none" fill-rule="evenodd">
        <g id="Market-Solution" fill-rule="nonzero">
            <path d="M415,152.680498 C409.624754,139.419087 398.308448,127.145228 385.294695,121.219917 C391.518664,113.460581 395.337917,103.86722 395.337917,93.1452282 C395.337917,88.4896266 394.630648,83.9751037 393.357564,79.8838174 C387.699411,61.4024896 370.442043,48 350.072692,48 C329.70334,48 312.445972,61.4024896 306.787819,79.8838174 C305.514735,84.1161826 304.807466,88.6307054 304.807466,93.1452282 C304.807466,103.726141 308.626719,113.460581 314.850688,121.219917 C301.978389,127.286307 291.652259,137.86722 286.277014,151.128631 C277.506876,139.278008 271.848723,124.887967 271,109.228216 C271.282908,113.460581 271.848723,117.692946 272.697446,121.784232 C272.8389,122.630705 273.121807,123.618257 273.263261,124.46473 C273.97053,127.145228 274.6778,129.684647 275.667976,132.224066 C275.667976,132.224066 275.667976,132.224066 275.667976,132.224066 C277.082515,136.174274 278.921415,139.983402 280.901768,143.651452 C282.174853,146.049793 283.730845,148.307054 285.286837,150.564315 C285.286837,150.564315 285.286837,150.564315 285.286837,150.564315 C292.076621,160.157676 300.988212,168.19917 311.314342,173.983402 C311.314342,173.983402 311.314342,173.983402 311.314342,173.983402 C312.587426,174.688797 313.719057,175.253112 314.992141,175.958506 C316.831041,176.946058 318.811395,177.792531 320.791749,178.497925 C323.337917,179.485477 325.884086,180.33195 328.571709,181.037344 C329.844794,181.319502 331.117878,181.742739 332.390963,182.024896 C333.664047,182.307054 334.937132,182.589212 336.210216,182.73029 C337.483301,183.012448 338.756385,183.153527 340.170923,183.294606 C341.444008,183.435685 342.858546,183.576763 344.131631,183.717842 C346.111984,183.858921 348.092338,184 350.214145,184 C352.335953,184 354.316306,183.858921 356.29666,183.717842 C357.569745,183.576763 358.984283,183.435685 360.257367,183.294606 C361.530452,183.153527 362.94499,182.871369 364.218075,182.73029 C365.491159,182.448133 366.764244,182.307054 368.037328,182.024896 C369.310413,181.742739 370.583497,181.460581 371.856582,181.037344 C374.544204,180.33195 377.090373,179.485477 379.636542,178.497925 C381.616896,177.792531 383.455796,176.946058 385.436149,175.958506 C386.709234,175.394191 386.426326,177.651452 387.557957,176.946058 L403.400786,163.825726 M350.072692,70.5726141 C356.155206,70.5726141 361.530452,72.9709544 365.632613,76.780083 C370.017682,80.8713693 372.705305,86.6556017 372.705305,93.1452282 C372.705305,105.560166 362.520629,115.717842 350.072692,115.717842 C337.624754,115.717842 327.440079,105.560166 327.440079,93.1452282 C327.440079,86.7966805 330.127701,80.8713693 334.51277,76.780083 C338.473477,72.9709544 343.990177,70.5726141 350.072692,70.5726141 Z M350.072692,183.435685 C333.381139,183.435685 317.821218,178.215768 305.090373,169.327801 C306.504912,151.975104 320.933202,138.290456 338.756385,138.290456 L361.388998,138.290456 C379.212181,138.290456 393.640472,151.975104 395.05501,169.327801 C382.324165,178.215768 366.764244,183.435685 350.072692,183.435685 Z" id="Shape" fill="#95D4D1"></path>
            <path d="M630.705645,377.943548 C631.552419,368.629032 632.258065,359.314516 632.258065,350 C632.258065,340.685484 631.693548,331.370968 630.705645,322.056452 C670.927419,308.508065 700,270.544355 700,225.806452 C700,169.778226 654.415323,124.193548 598.387097,124.193548 C577.076613,124.193548 557.177419,130.826613 540.806452,142.116935 C514.415323,117.983871 483.508065,98.7903226 450.342742,86.2298387 C442.862903,37.5403226 400.806452,0 350,0 C299.193548,0 257.137097,37.5403226 249.657258,86.2298387 C216.491935,98.9314516 185.443548,117.983871 159.193548,142.116935 C142.822581,130.826613 122.923387,124.193548 101.612903,124.193548 C45.5846774,124.193548 0,169.778226 0,225.806452 C0,270.544355 29.0725806,308.508065 69.2943548,322.056452 C68.4475806,331.370968 67.7419355,340.685484 67.7419355,350 C67.7419355,359.314516 68.3064516,368.629032 69.2943548,377.943548 C29.0725806,391.491935 0,429.455645 0,474.193548 C0,530.221774 45.5846774,575.806452 101.612903,575.806452 C122.923387,575.806452 142.822581,569.173387 159.193548,557.883065 C185.443548,582.016129 216.491935,601.209677 249.657258,613.770161 C257.137097,662.459677 299.193548,700 350,700 C400.806452,700 442.862903,662.459677 450.342742,613.770161 C483.508065,601.068548 514.556452,582.016129 540.806452,557.883065 C557.177419,569.173387 576.935484,575.806452 598.387097,575.806452 C654.415323,575.806452 700,530.221774 700,474.193548 C700,429.455645 670.927419,391.491935 630.705645,377.943548 Z M598.387097,146.774194 C641.995968,146.774194 677.419355,182.197581 677.419355,225.806452 C677.419355,262.782258 652.016129,293.830645 617.721774,302.439516 C611.512097,303.991935 605.020161,304.83871 598.387097,304.83871 C554.778226,304.83871 519.354839,269.415323 519.354839,225.806452 C519.354839,200.120968 531.633065,177.258065 550.685484,162.721774 C563.951613,152.701613 580.46371,146.774194 598.387097,146.774194 Z M451.189516,589.21371 C446.532258,537.419355 402.923387,496.774194 350,496.774194 C297.076613,496.774194 253.467742,537.419355 248.810484,589.21371 C222.278226,577.923387 197.721774,562.258065 176.129032,542.923387 C192.782258,524.858871 203.084677,500.725806 203.084677,474.193548 C203.084677,418.165323 157.5,372.580645 101.471774,372.580645 C98.0846774,372.580645 94.6975806,372.721774 91.3104839,373.145161 C90.6048387,365.383065 90.1814516,357.762097 90.1814516,350 C90.1814516,342.237903 90.6048387,334.616935 91.3104839,326.854839 C94.6975806,327.137097 98.0846774,327.419355 101.471774,327.419355 C157.5,327.419355 203.084677,281.834677 203.084677,225.806452 C203.084677,199.274194 192.782258,175.141129 176.129032,157.076613 C197.580645,137.741935 222.278226,122.076613 248.810484,110.78629 C253.467742,162.580645 297.076613,203.225806 350,203.225806 C402.923387,203.225806 446.532258,162.580645 451.189516,110.78629 C477.721774,122.076613 502.278226,137.741935 523.870968,157.076613 C507.076613,175.141129 496.774194,199.274194 496.774194,225.806452 C496.774194,281.834677 542.358871,327.419355 598.387097,327.419355 C601.774194,327.419355 605.16129,327.278226 608.548387,326.854839 C609.254032,334.616935 609.677419,342.237903 609.677419,350 C609.677419,357.762097 609.254032,365.383065 608.548387,373.145161 C605.16129,372.862903 601.774194,372.580645 598.387097,372.580645 C542.358871,372.580645 496.774194,418.165323 496.774194,474.193548 C496.774194,500.725806 507.076613,524.858871 523.729839,542.923387 C502.278226,562.258065 477.580645,577.923387 451.189516,589.21371 Z M350,22.5806452 C387.822581,22.5806452 419.435484,49.2540323 427.197581,84.8185484 C428.326613,90.1814516 429.032258,95.8266129 429.032258,101.612903 L429.032258,103.306452 C428.891129,108.669355 428.326613,113.891129 427.197581,118.971774 C427.056452,119.818548 426.774194,120.806452 426.633065,121.653226 C425.927419,124.334677 425.221774,126.875 424.233871,129.415323 L424.233871,129.415323 C422.822581,133.366935 420.987903,137.177419 419.012097,140.846774 C418.306452,141.975806 417.600806,143.245968 416.895161,144.375 C416.189516,145.504032 415.342742,146.633065 414.637097,147.762097 C414.637097,147.762097 414.637097,147.762097 414.637097,147.762097 C414.21371,148.326613 413.790323,148.891129 413.366935,149.596774 C412.520161,150.725806 411.532258,151.854839 410.685484,152.983871 C410.685484,152.983871 410.685484,152.983871 410.685484,152.983871 C409.697581,154.112903 408.709677,155.241935 407.721774,156.229839 C407.298387,156.794355 406.733871,157.358871 406.169355,157.782258 C405.604839,158.346774 405.181452,158.770161 404.616935,159.334677 C402.5,161.451613 400.241935,163.28629 397.842742,164.979839 C397.278226,165.403226 396.71371,165.826613 396.149194,166.25 C395.16129,166.955645 394.032258,167.66129 392.903226,168.366935 C392.479839,168.649194 391.915323,168.931452 391.491935,169.21371 C390.504032,169.778226 389.657258,170.342742 388.669355,170.907258 L388.669355,170.907258 C387.399194,171.612903 386.270161,172.177419 385,172.883065 C383.165323,173.870968 381.189516,174.717742 379.21371,175.423387 C376.673387,176.41129 374.133065,177.258065 371.451613,177.96371 C370.181452,178.245968 368.91129,178.669355 367.641129,178.951613 C366.370968,179.233871 365.100806,179.516129 363.830645,179.657258 C362.560484,179.939516 361.290323,180.080645 359.879032,180.221774 C358.608871,180.362903 357.197581,180.504032 355.927419,180.645161 C353.951613,180.78629 351.975806,180.927419 349.858871,180.927419 C347.741935,180.927419 345.766129,180.78629 343.790323,180.645161 C342.520161,180.504032 341.108871,180.362903 339.83871,180.221774 C338.568548,180.080645 337.298387,179.798387 335.887097,179.657258 C334.616935,179.375 333.346774,179.233871 332.076613,178.951613 C330.806452,178.669355 329.53629,178.387097 328.266129,177.96371 C325.584677,177.258065 323.044355,176.41129 320.504032,175.423387 C318.528226,174.717742 316.693548,173.870968 314.717742,172.883065 C313.447581,172.318548 312.177419,171.612903 311.048387,170.907258 C311.048387,170.907258 311.048387,170.907258 311.048387,170.907258 C310.483871,170.625 309.919355,170.342742 309.354839,169.919355 C307.66129,168.931452 305.967742,167.802419 304.274194,166.673387 C303.850806,166.391129 303.568548,166.108871 303.145161,165.826613 C298.770161,162.580645 294.53629,158.91129 290.866935,154.818548 C290.302419,154.112903 289.596774,153.407258 289.032258,152.701613 C289.032258,152.701613 289.032258,152.701613 289.032258,152.701613 C288.044355,151.572581 287.197581,150.443548 286.350806,149.314516 C285.927419,148.75 285.504032,148.185484 285.080645,147.479839 C285.080645,147.479839 285.080645,147.479839 285.080645,147.479839 C284.233871,146.350806 283.528226,145.221774 282.822581,144.092742 C282.116935,142.96371 281.41129,141.834677 280.705645,140.564516 C278.58871,136.895161 276.895161,133.084677 275.483871,129.133065 C275.483871,129.133065 275.483871,129.133065 275.483871,129.133065 C274.637097,126.592742 273.790323,124.052419 273.084677,121.370968 C272.802419,120.524194 272.66129,119.53629 272.520161,118.689516 C271.673387,114.596774 271.108871,110.362903 270.826613,106.129032 C270.826613,105.564516 270.826613,105.141129 270.826613,104.576613 C270.826613,104.012097 270.826613,103.58871 270.826613,103.024194 L270.826613,101.612903 C270.826613,95.8266129 271.391129,90.1814516 272.66129,84.8185484 C280.564516,49.2540323 312.177419,22.5806452 350,22.5806452 Z M22.5806452,225.806452 C22.5806452,182.197581 58.0040323,146.774194 101.612903,146.774194 C119.53629,146.774194 136.048387,152.701613 149.314516,162.721774 C168.366935,177.116935 180.645161,199.979839 180.645161,225.806452 C180.645161,269.415323 145.221774,304.83871 101.612903,304.83871 C94.9798387,304.83871 88.4879032,303.991935 82.2782258,302.439516 C47.983871,293.830645 22.5806452,262.782258 22.5806452,225.806452 Z M101.612903,553.225806 C58.0040323,553.225806 22.5806452,517.802419 22.5806452,474.193548 C22.5806452,436.512097 48.9717742,405.040323 84.1129032,397.137097 C89.7580645,395.866935 95.5443548,395.16129 101.612903,395.16129 C145.221774,395.16129 180.645161,430.584677 180.645161,474.193548 C180.645161,497.197581 170.766129,517.943548 154.959677,532.479839 C140.987903,545.322581 122.217742,553.225806 101.612903,553.225806 Z M350,677.419355 C308.225806,677.419355 273.931452,644.818548 271.108871,603.75 C270.967742,601.915323 270.967742,600.221774 270.967742,598.387097 C270.967742,554.778226 306.391129,519.354839 350,519.354839 C393.608871,519.354839 429.032258,554.778226 429.032258,598.387097 C429.032258,600.221774 429.032258,602.056452 428.891129,603.75 C426.068548,644.818548 391.774194,677.419355 350,677.419355 Z M598.387097,553.225806 C577.782258,553.225806 559.012097,545.322581 545.040323,532.479839 C529.233871,517.943548 519.354839,497.197581 519.354839,474.193548 C519.354839,430.584677 554.778226,395.16129 598.387097,395.16129 C604.314516,395.16129 610.241935,395.866935 615.887097,397.137097 C651.169355,405.040323 677.419355,436.653226 677.419355,474.193548 C677.419355,517.802419 641.995968,553.225806 598.387097,553.225806 Z" id="Shape" fill="#455560"></path>
            <path d="M350.5,215 C275.833854,215 215,275.833854 215,350.5 C215,425.166146 275.833854,486 350.5,486 C425.166146,486 486,425.166146 486,350.5 C486,275.833854 425.166146,215 350.5,215 Z M350.5,463.416667 C288.254688,463.416667 237.583333,412.745313 237.583333,350.5 C237.583333,288.254687 288.254688,237.583333 350.5,237.583333 C412.745313,237.583333 463.416667,288.254688 463.416667,350.5 C463.416667,412.745313 412.745313,463.416667 350.5,463.416667 Z" id="Shape" fill="#455560"></path>
            <path d="M610,180.256281 L610,225.281407 C610,229.080402 608.028651,232.59799 604.930817,234.708543 L599.720824,238.226131 L580.570578,251.030151 C578.599229,252.296482 576.48707,253 574.2341,253 C570.573023,253 567.052758,251.170854 564.940598,247.934673 C561.420332,242.728643 562.828439,235.693467 568.038432,232.316583 L587.470299,219.371859 L587.470299,180.256281 C587.470299,177.160804 588.737595,174.346734 590.708944,172.236181 C592.680292,170.125628 595.637316,169 598.73515,169 C604.930817,169 610,174.065327 610,180.256281 Z" id="Path" fill="#95D4D1"></path>
            <path d="M146.706785,208.253933 L120.926305,234.161798 C117.827012,237.134831 113.31895,238.267416 109.374396,236.851685 L102.612303,234.586517 L88.806363,229.914607 C84.7209318,228.498876 80.2128697,229.631461 77.254454,232.604494 L61.194483,248.74382 C59.0813289,250.867416 56.1229132,252 53.1644974,252 C50.2060817,252 47.3885429,250.867416 45.2753888,248.74382 C40.9082037,244.355056 40.9082037,237.134831 45.2753888,232.746067 L71.0558687,206.838202 C74.1551614,203.865169 78.5223465,202.732584 82.6077777,204.148315 L103.175811,211.085393 C107.261242,212.501124 111.769304,211.368539 114.72772,208.395506 L117.686136,205.422472 L130.787691,192.25618 C133.041722,190.132584 135.859261,189 138.817676,189 C141.776092,189 144.593631,190.132584 146.847662,192.25618 C151.07397,196.644944 151.07397,203.865169 146.706785,208.253933 Z" id="Path" fill="#95D4D1"></path>
            <path d="M146.573034,429 L56.2858926,429 C50.0786517,429 45,434.085 45,440.3 L45,496.8 C45,503.015 50.0786517,508.1 56.2858926,508.1 L74.2022472,508.1 L104.815231,538.75125 C106.931336,540.87 109.893883,542 112.856429,542 C114.267166,542 115.818976,541.7175 117.229713,541.1525 C121.461923,539.4575 124.142322,535.22 124.142322,530.7 L124.142322,508.1 L146.714107,508.1 C152.921348,508.1 158,503.015 158,496.8 L158,440.3 C157.858926,434.085 152.780275,429 146.573034,429 Z M135.287141,485.5 L112.715356,485.5 C106.508115,485.5 101.429463,490.585 101.429463,496.8 L101.429463,503.43875 L86.8988764,488.89 C84.7827715,486.77125 81.9612984,485.64125 78.8576779,485.64125 L67.5717853,485.64125 L67.5717853,451.74125 L135.287141,451.74125 L135.287141,485.5 Z" id="Shape" fill="#95D4D1"></path>
            <path d="M394.645489,578.576598 C393.378912,583.490249 388.875528,586.85961 383.809221,587 L316.25846,587 C313.162384,587 310.347769,585.73649 308.236807,583.771029 C306.125846,581.805569 305,578.857378 305,575.768798 C305,569.591637 310.066307,564.537596 316.25846,564.537596 L362.558877,564.537596 C362.699608,564.537596 362.840339,564.397206 362.699608,564.256816 L358.196224,557.658484 C356.929647,555.693024 356.225994,553.587174 356.225994,551.340933 C356.225994,547.690793 358.055493,544.181042 361.292301,541.934801 C366.499339,538.425051 373.535876,539.828951 376.913414,545.023382 L392.95672,569.030077 C394.78622,571.978267 395.489873,575.347628 394.645489,578.576598 Z" id="Path" fill="#95D4D1"></path>
            <path d="M395,621.26485 C395,627.460518 389.941603,632.529701 383.759117,632.529701 L337.109452,632.529701 L341.746317,639.429422 C343.010916,641.400771 343.713471,643.51293 343.713471,645.62509 C343.713471,649.286166 341.886828,652.806432 338.655074,655.059402 C333.456165,658.579668 326.430613,657.171561 323.058348,651.961568 L307.04009,627.74214 C305.213447,625.066738 304.510891,621.687282 305.353958,618.448638 C306.056513,616.054857 307.321112,614.083508 309.007245,612.675402 C310.974399,610.985674 313.503598,610 316.313819,610 L383.759117,610 C386.569338,610 389.098536,610.985674 391.065691,612.675402 C391.346713,612.816213 391.487224,613.097834 391.768246,613.238645 C393.735401,615.350804 395,618.167017 395,621.26485 Z" id="Path" fill="#95D4D1"></path>
            <path d="M576,485.333333 L576,496.666667 C576,502.475 571.54375,507.15 565.9375,507.858333 C565.50625,507.858333 564.93125,508 564.5,508 C561.3375,508 558.4625,506.725 556.30625,504.741667 C554.15,502.616667 553,499.783333 553,496.666667 L553,485.333333 C553,479.1 558.175,474 564.5,474 C570.825,474 576,479.1 576,485.333333 Z" id="Path" fill="#95D4D1"></path>
            <path d="M610,463.2 L610,496.8 C610,502.96 604.825,508 598.5,508 C595.3375,508 592.4625,506.74 590.30625,504.78 C588.15,502.68 587,499.88 587,496.8 L587,463.2 C587,457.04 592.175,452 598.5,452 C598.64375,452 598.7875,452 598.93125,452 C605.1125,452.28 610,457.18 610,463.2 Z" id="Path" fill="#95D4D1"></path>
            <path d="M644,440.285714 L644,496.714286 C644,502.921429 638.825,508 632.5,508 C629.3375,508 626.4625,506.730357 624.30625,504.755357 C622.15,502.639286 621,499.817857 621,496.714286 L621,440.285714 C621,434.078571 626.175,429 632.5,429 C638.825,429 644,434.078571 644,440.285714 Z" id="Path" fill="#95D4D1"></path>
            <path d="M417.2,326 L374,326 L374,282.8 C374,280.117647 371.882353,278 369.2,278 L330.8,278 C328.117647,278 326,280.117647 326,282.8 L326,326 L282.8,326 C280.117647,326 278,328.117647 278,330.8 L278,369.2 C278,371.882353 280.117647,374 282.8,374 L326,374 L326,417.2 C326,419.882353 328.117647,422 330.8,422 L369.2,422 C371.882353,422 374,419.882353 374,417.2 L374,374 L417.2,374 C419.882353,374 422,371.882353 422,369.2 L422,330.8 C422,328.117647 419.882353,326 417.2,326 Z" id="Path" fill="#95D4D1"></path>
        </g>
    </g>
</svg>