<?xml version="1.0" encoding="utf-8"?>
<!-- Generator: Adobe Illustrator 26.0.3, SVG Export Plug-In . SVG Version: 6.00 Build 0)  -->
<svg version="1.1" id="Layer_1" xmlns="http://www.w3.org/2000/svg" xmlns:xlink="http://www.w3.org/1999/xlink" x="0px" y="0px"
	 viewBox="0 0 50 50" style="enable-background:new 0 0 50 50;" xml:space="preserve">
<style type="text/css">
	.st0{fill:#465661;}
</style>
<path class="st0" d="M0,25c0.8,33.5,49.3,33.2,50,0C49.3-8.2,0.9-8.4,0,25z M32.8,32.5c-1.8,0-3.5-0.7-4.7-1.9c0,0-7.8-7.7-7.8-7.7
	c-4.1-3.8-10,1.8-6.1,6c1.3,1.5,3.7,1.2,5.5,1.2c0,0-1.1-1.1-1.1-1.1c-1.1-1.1,0.6-2.8,1.7-1.7l3.1,3.1c0.5,0.5,0.5,1.2,0,1.7
	c0,0-3.1,3.1-3.1,3.1c-1.1,1.1-2.8-0.6-1.7-1.7l1.1-1.1c0,0-2.5,0-2.5,0c-8.9-0.3-8.9-13,0-13.3c1.8,0,3.5,0.7,4.7,1.9l7.8,7.7
	c0.8,0.8,1.9,1.2,3,1.2c5.6-0.1,5.7-8.3,0-8.5h-2.5c0,0,1.1,1.1,1.1,1.1c1.1,1.1-0.6,2.8-1.7,1.7l-3.1-3.1c-0.5-0.5-0.5-1.2,0-1.7
	c0,0,3.1-3.1,3.1-3.1c1.1-1.1,2.8,0.6,1.7,1.7l-1.1,1.1h2.5C41.7,19.5,41.7,32.2,32.8,32.5z"/>
</svg>
