<?xml version="1.0" encoding="utf-8"?>
<!-- Generator: Adobe Illustrator 26.0.3, SVG Export Plug-In . SVG Version: 6.00 Build 0)  -->
<svg version="1.1" id="Layer_1" xmlns="http://www.w3.org/2000/svg" xmlns:xlink="http://www.w3.org/1999/xlink" x="0px" y="0px"
	 viewBox="0 0 100 100" style="enable-background:new 0 0 100 100;" xml:space="preserve">
<style type="text/css">
	.st0{fill:#A1C7E3;}
	.st1{fill:#465661;}
</style>
<g>
	<g>
		<g>
			<g>
				<path id="XMLID_00000183955378166115535610000000338982196544027574_" class="st0" d="M18.3,18.3c0.5-0.5,0.8-1.2,0.8-1.9
					c0-0.7-0.3-1.4-0.8-1.9c-0.5-0.5-1.2-0.8-1.9-0.8c-0.7,0-1.4,0.3-1.9,0.8c-0.5,0.5-0.8,1.2-0.8,1.9c0,0.7,0.3,1.4,0.8,1.9
					c0.5,0.5,1.2,0.8,1.9,0.8C17.2,19.1,17.9,18.8,18.3,18.3z"/>
			</g>
		</g>
		<path id="XMLID_00000154388225836877911020000017529751369593623180_" class="st1" d="M11.3,22.5c-1.2-0.8-2.8-0.4-3.6,0.8
			c-6,9.4-8.6,20.8-7.5,32c1.2,11.3,6.3,22,14.4,30.1C24.4,95.1,37.2,100,50,100s25.6-4.9,35.4-14.6c19.5-19.5,19.5-51.2,0-70.7
			C77.3,6.6,66.6,1.5,55.3,0.3C44.2-0.9,32.8,1.7,23.4,7.7c-1.2,0.8-1.6,2.4-0.8,3.6c0.8,1.2,2.4,1.6,3.6,0.8
			C44,0.9,66.8,3.5,81.7,18.3c17.5,17.5,17.5,45.9,0,63.3c-17.5,17.5-45.9,17.5-63.3,0C3.7,67,1.1,43.6,12.1,26.1
			C12.9,24.9,12.6,23.2,11.3,22.5z"/>
	</g>
	<path class="st1" d="M65.6,36.7h-4.9l2.1-2.1c2.2-2.2-1.2-5.7-3.4-3.4c0,0-6.2,6.3-6.2,6.3c-0.9,0.9-0.9,2.5,0,3.4l6.3,6.3
		c2.2,2.2,5.7-1.2,3.4-3.4c0,0-2.1-2.1-2.1-2.1c21.2-3.2,14.5,25.2-1.2,14.4c-8.4-7.4-22-28-34.6-15.4c-10.3,11,0.7,25.3,14.4,22.7
		l-2.1,2.1c-2.2,2.2,1.2,5.7,3.4,3.4c0,0,6.3-6.3,6.3-6.3c0.9-0.9,0.9-2.5,0-3.4l-6.3-6.3c-2.2-2.2-5.7,1.2-3.4,3.4
		c0,0,2.1,2.1,2.1,2.1c-21,3.3-14.7-25.2,1.2-14.4c0,0,15.6,15.4,15.6,15.4C75.6,75.4,91,39.2,65.6,36.7z"/>
</g>
</svg>
