<?xml version="1.0" encoding="utf-8"?>
<!-- Generator: Adobe Illustrator 26.0.3, SVG Export Plug-In . SVG Version: 6.00 Build 0)  -->
<svg version="1.1" id="Layer_1" xmlns="http://www.w3.org/2000/svg" xmlns:xlink="http://www.w3.org/1999/xlink" x="0px" y="0px"
	 viewBox="0 0 100 100" style="enable-background:new 0 0 100 100;" xml:space="preserve">
<style type="text/css">
	.st0{fill:#455560;}
	.st1{fill:#A0C6E2;}
	.st2{fill:#465560;}
</style>
<g>
	<path class="st0" d="M75.1,66.4c-0.1,0.2-0.4,0.4-0.6,0.4c-0.5,0.1-0.9-0.2-1.1-0.8l-0.5-2.4c-0.2-0.8-0.8-1.2-1.5-1.1
		c-0.7,0.1-1.2,0.7-1.2,1.5v11.2c0,0.5-0.4,1-0.9,1c-0.4,0-0.8-0.4-0.9-0.9l0-6.6c0-0.7-0.5-1.2-1.1-1.2c-0.6,0-1.1,0.5-1.1,1.2
		l0,8.6c0,0.5-0.4,1-0.9,1c-0.5,0-0.9-0.4-0.9-1v-8.6c0-0.7-0.5-1.2-1.1-1.2c-0.6,0-1.1,0.5-1.1,1.2v6.6c-0.1,0.5-0.4,0.9-0.9,0.9
		c-0.5,0-0.9-0.4-0.9-1v-6.5c0-0.7-0.5-1.2-1.1-1.2c-0.6,0-1.1,0.5-1.1,1.2v4.4c-0.1,0.5-0.4,0.9-0.9,0.9c-0.5,0-0.9-0.4-0.9-1v-4.8
		v-3.3v-4c0-2.5,0.9-4.9,2.5-6.7l1.4-1.5c0.2-0.2,0.3-0.5,0.3-0.8v-7.1h2.3h1.8v3.6c0,0.7,0.5,1.2,1.1,1.2c0.6,0,1.1-0.5,1.1-1.2
		v-3.6h2.2v7.1c0,0.3,0.1,0.6,0.3,0.8l2.1,2.3c1.2,1.3,2,3,2.3,4.9l1,5.8C75.3,65.9,75.2,66.2,75.1,66.4 M54.7,59.9h-5.9l-1-1.2
		c-1.8-2-4.1-3.2-6.7-3.4v-6.6l1-1.2c1.8-2,2.9-4.7,3.1-7.5h5.9l1,1.2c1.8,2,4.1,3.2,6.7,3.4v6.6l-1,1.2
		C56,54.5,54.9,57.1,54.7,59.9 M54.7,71.8h-6.3c-0.3,0-0.6,0.1-0.8,0.4l-2.1,2.4c-1.2,1.3-2.7,2.2-4.4,2.6L36,78.2
		c-0.2,0.1-0.5,0-0.7-0.2c-0.2-0.2-0.3-0.4-0.4-0.7c-0.1-0.5,0.2-1,0.7-1.2l2.1-0.6c0.7-0.2,1.1-0.9,1-1.7c-0.1-0.8-0.7-1.3-1.3-1.3
		h-10c-0.5,0-0.9-0.4-0.9-1c0-0.5,0.3-0.9,0.8-1l5.9,0c0.6,0,1.1-0.5,1.1-1.2c0-0.7-0.5-1.2-1.1-1.2l-7.7,0c-0.5,0-0.9-0.4-0.9-1
		s0.4-1,0.9-1h7.7c0.6,0,1.1-0.5,1.1-1.2c0-0.7-0.5-1.2-1.1-1.2h-5.9c-0.4-0.1-0.8-0.5-0.8-1c0-0.5,0.4-1,0.9-1h5.8
		c0.6,0,1.1-0.5,1.1-1.2c0-0.7-0.5-1.2-1.1-1.2h-3.9c-0.4-0.1-0.8-0.5-0.8-1c0-0.5,0.4-1,0.9-1h10.8c2.3,0,4.4,1,6,2.8l1.4,1.5
		c0.2,0.2,0.5,0.4,0.8,0.4h6.3V71.8z M28.1,45c-1.2-1.3-2-3-2.3-4.9l-1-5.8c0-0.3,0-0.5,0.1-0.8c0.1-0.2,0.4-0.4,0.6-0.4
		c0.5-0.1,0.9,0.2,1.1,0.8l0.5,2.4c0.2,0.8,0.8,1.2,1.5,1.1c0.7-0.1,1.2-0.7,1.2-1.5V24.8c0-0.5,0.4-1,0.9-1c0.4,0,0.8,0.4,0.9,0.9
		l0,6.6c0,0.7,0.5,1.2,1.1,1.2c0.6,0,1.1-0.5,1.1-1.2v-6.5c0-0.1,0-0.1,0-0.2v-1.8c0-0.5,0.4-1,0.9-1c0.5,0,0.9,0.4,0.9,1v1.8
		c0,0.1,0,0.1,0,0.2l0,6.5c0,0.7,0.5,1.2,1.1,1.2c0.6,0,1.1-0.5,1.1-1.2v-6.6c0.1-0.5,0.4-0.9,0.9-0.9c0.5,0,0.9,0.4,0.9,1
		c0,0,0,5.8,0,5.9v0.6c0,0.7,0.5,1.2,1.1,1.2c0.6,0,1.1-0.5,1.1-1.2v-4.4c0.1-0.5,0.4-0.9,0.9-0.9c0.5,0,0.9,0.4,0.9,1v12.1
		c0,2.5-0.9,4.9-2.5,6.7l-1.4,1.5c-0.2,0.2-0.3,0.5-0.3,0.8v7.1h-2.1v-3.2c0-0.7-0.5-1.2-1.1-1.2c-0.6,0-1.1,0.5-1.1,1.2v3.2h-4.2
		v-7.1c0-0.3-0.1-0.6-0.3-0.8L28.1,45z M45.3,35.1v-3.3v-3.7h6.3c0.3,0,0.6-0.1,0.8-0.4l2.1-2.4c1.2-1.3,2.7-2.2,4.4-2.6l5.2-1.1
		c0.2-0.1,0.5,0,0.7,0.2c0.2,0.2,0.3,0.4,0.4,0.7c0.1,0.5-0.2,1-0.7,1.2l-2.1,0.6c-0.7,0.2-1.1,0.9-1,1.7c0.1,0.8,0.7,1.3,1.3,1.3
		h10c0.5,0,0.9,0.4,0.9,1c0,0.5-0.3,0.9-0.8,1l-5.9,0c-0.6,0-1.1,0.5-1.1,1.2c0,0.7,0.5,1.2,1.1,1.2l7.7,0c0.5,0,0.9,0.4,0.9,1
		s-0.4,1-0.9,1h-7.7c-0.6,0-1.1,0.5-1.1,1.2c0,0.7,0.5,1.2,1.1,1.2h5.9c0.4,0.1,0.8,0.5,0.8,1c0,0.5-0.4,1-0.9,1h-5.8
		c-0.6,0-1.1,0.5-1.1,1.2c0,0.7,0.5,1.2,1.1,1.2h3.9c0.4,0.1,0.8,0.5,0.8,1c0,0.5-0.4,1-0.9,1H59.7c-2.3,0-4.4-1-6-2.8L52.4,38
		c-0.2-0.2-0.5-0.4-0.8-0.4h-6.3V35.1z M77.3,65.2l-1-5.8c-0.4-2.3-1.4-4.4-2.9-6.1l-1.8-2v-6.8c1.1-0.5,1.9-1.7,1.9-3.1
		c0-0.4-0.1-0.8-0.2-1.1c1.3-0.4,2.2-1.7,2.2-3.2c0-0.4-0.1-0.8-0.2-1.2c1.2-0.5,2-1.7,2-3.2c0-1.5-0.8-2.7-2-3.2
		c0.1-0.4,0.2-0.8,0.2-1.2c0-1.9-1.4-3.4-3-3.4h-6c0.6-0.7,0.8-1.8,0.7-2.8c-0.1-0.9-0.6-1.7-1.3-2.2c-0.7-0.5-1.5-0.7-2.3-0.5
		l-5.2,1.1c-2.1,0.5-4,1.6-5.5,3.3l-1.8,2h-6.1c-0.4-1.2-1.5-2.1-2.8-2.1c-0.3,0-0.7,0.1-1,0.2c-0.4-1.4-1.5-2.5-2.9-2.5
		c-0.4,0-0.7,0.1-1,0.2c-0.4-1.3-1.5-2.3-2.8-2.3c-1.3,0-2.4,0.9-2.8,2.3c-0.3-0.1-0.7-0.2-1-0.2c-1.7,0-3,1.5-3,3.4v6.8
		c-0.7-0.6-1.6-0.9-2.5-0.7c-0.8,0.2-1.5,0.7-2,1.4c-0.5,0.8-0.6,1.7-0.5,2.6l1,5.8c0.4,2.3,1.4,4.4,2.9,6.1l1.8,2v6.8
		c-1.1,0.5-1.9,1.7-1.9,3.1c0,0.4,0.1,0.8,0.2,1.1c-1.3,0.4-2.2,1.7-2.2,3.2c0,0.4,0.1,0.8,0.2,1.2c-1.2,0.5-2,1.7-2,3.2
		c0,1.5,0.8,2.7,2,3.2c-0.1,0.4-0.2,0.8-0.2,1.2c0,1.9,1.4,3.4,3,3.4h6c-0.6,0.7-0.8,1.8-0.7,2.8c0.1,0.9,0.6,1.7,1.3,2.2
		c0.5,0.4,1.1,0.6,1.7,0.6c0.2,0,0.4,0,0.6-0.1l5.2-1.1c2.1-0.5,4-1.6,5.5-3.3l1.8-2h6.1c0.4,1.2,1.5,2.1,2.8,2.1
		c0.3,0,0.7-0.1,1-0.2c0.4,1.4,1.5,2.5,2.9,2.5c0.4,0,0.7-0.1,1-0.2c0.4,1.3,1.5,2.3,2.8,2.3c1.3,0,2.4-0.9,2.8-2.3
		c0.3,0.1,0.7,0.2,1,0.2c1.7,0,3-1.5,3-3.4v-6.8c0.7,0.6,1.6,0.9,2.5,0.7c0.8-0.2,1.5-0.7,2-1.4C77.3,67,77.5,66.1,77.3,65.2"/>
</g>
<g>
	<g>
		<g>
			<path id="XMLID_00000183955378166115535610000000338982196544027574_" class="st1" d="M18.3,18.3c0.5-0.5,0.8-1.2,0.8-1.9
				c0-0.7-0.3-1.4-0.8-1.9c-0.5-0.5-1.2-0.8-1.9-0.8c-0.7,0-1.4,0.3-1.9,0.8c-0.5,0.5-0.8,1.2-0.8,1.9c0,0.7,0.3,1.4,0.8,1.9
				c0.5,0.5,1.2,0.8,1.9,0.8C17.2,19.1,17.9,18.8,18.3,18.3z"/>
		</g>
	</g>
	<path id="XMLID_00000154388225836877911020000017529751369593623180_" class="st2" d="M11.3,22.5c-1.2-0.8-2.8-0.4-3.6,0.8
		c-6,9.4-8.6,20.8-7.5,32c1.2,11.3,6.3,22,14.4,30.1C24.4,95.1,37.2,100,50,100s25.6-4.9,35.4-14.6c19.5-19.5,19.5-51.2,0-70.7
		C77.3,6.6,66.6,1.5,55.3,0.3C44.1-0.9,32.8,1.7,23.4,7.7c-1.2,0.8-1.6,2.4-0.8,3.6c0.8,1.2,2.4,1.6,3.6,0.8
		c17.8-11.2,40.6-8.6,55.5,6.2c17.5,17.5,17.5,45.9,0,63.3c-17.5,17.5-45.9,17.5-63.3,0C3.7,67,1,43.6,12.1,26.1
		C12.9,24.9,12.6,23.3,11.3,22.5z"/>
</g>
</svg>
