<?xml version="1.0" encoding="utf-8"?>
<!-- Generator: Adobe Illustrator 26.0.3, SVG Export Plug-In . SVG Version: 6.00 Build 0)  -->
<svg version="1.1" id="Layer_1" xmlns="http://www.w3.org/2000/svg" xmlns:xlink="http://www.w3.org/1999/xlink" x="0px" y="0px"
	 viewBox="0 0 50.1 50" style="enable-background:new 0 0 50.1 50;" xml:space="preserve">
<style type="text/css">
	.st0{fill:#465560;}
</style>
<g>
	<path class="st0" d="M14.5,24.1v3.8h2.3v-1.7c0-0.4,0.3-0.6,0.6-0.6c0.3,0,0.6,0.3,0.6,0.6v1.7h1.2v-3.8c0-0.2,0.1-0.3,0.2-0.5
		l0.7-0.8c0.9-1,1.3-2.3,1.3-3.6l-0.5-7.1c-0.2,0-0.4,0.2-0.5,0.5v2.4c0,0.4-0.3,0.6-0.6,0.6c-0.3,0-0.6-0.3-0.6-0.6v-0.3
		c0,0,0-3.2,0-3.2c0-0.3-0.2-0.5-0.5-0.5c-0.2,0-0.4,0.2-0.5,0.5v3.6c0,0.4-0.3,0.6-0.6,0.6c-0.3,0-0.6-0.3-0.6-0.6l0-3.5
		c0,0,0-0.1,0-0.1v-1c0-0.3-0.2-0.5-0.5-0.5s-0.5,0.2-0.5,0.5v1c0,0,0,0.1,0,0.1v3.5c0,0.4-0.3,0.6-0.6,0.6c-0.3,0-0.6-0.3-0.6-0.6
		l0-3.6c0-0.3-0.2-0.5-0.5-0.5c-0.3,0-0.5,0.2-0.5,0.5v6.1c0,0.4-0.3,0.8-0.6,0.8c-0.4,0.1-0.7-0.2-0.8-0.6l-0.3-1.3
		c-0.1-0.3-0.3-0.5-0.6-0.4c-0.1,0-0.2,0.1-0.3,0.2c-0.1,0.1-0.1,0.3-0.1,0.4l0.6,3.1c0.2,1,0.6,1.9,1.3,2.6l1.1,1.3
		C14.4,23.7,14.5,23.9,14.5,24.1z"/>
	<path class="st0" d="M23.8,31.5L23,30.7c-0.9-1-2-1.5-3.2-1.5h-5.9c-0.3,0-0.5,0.2-0.5,0.5c0,0.3,0.2,0.5,0.4,0.5H16
		c0.3,0,0.6,0.3,0.6,0.6c0,0.4-0.3,0.6-0.6,0.6h-3.2c-0.3,0-0.5,0.2-0.5,0.5c0,0.3,0.2,0.5,0.4,0.5H16c0.3,0,0.6,0.3,0.6,0.6
		c0,0.4-0.3,0.6-0.6,0.6h-4.1c-0.3,0-0.5,0.2-0.5,0.5c0,0.3,0.2,0.5,0.5,0.5l4.1,0c0.3,0,0.6,0.3,0.6,0.6s-0.3,0.6-0.6,0.6l-3.2,0
		c-0.2,0-0.4,0.3-0.4,0.5c0,0.3,0.2,0.5,0.5,0.5h5.4c0.4,0,0.7,0.3,0.7,0.7c0,0.4-0.2,0.8-0.6,0.9l-1.2,0.3
		c-0.3,0.1-0.4,0.3-0.4,0.6c0,0.1,0.1,0.3,0.2,0.4c0.1,0.1,0.2,0.1,0.4,0.1l2.8-0.6c0.9-0.2,1.7-0.7,2.4-1.4l1.1-1.3
		c0.1-0.1,0.3-0.2,0.4-0.2h3.4v-5.1h-3.4C24,31.7,23.9,31.6,23.8,31.5z"/>
	<path class="st0" d="M26.3,18.5l0.7,0.8c0.9,1,2,1.5,3.2,1.5h5.9c0.3,0,0.5-0.2,0.5-0.5c0-0.3-0.2-0.5-0.4-0.5h-2.1
		c-0.3,0-0.6-0.3-0.6-0.6c0-0.4,0.3-0.6,0.6-0.6h3.2c0.3,0,0.5-0.2,0.5-0.5c0-0.3-0.2-0.5-0.4-0.5h-3.2c-0.3,0-0.6-0.3-0.6-0.6
		c0-0.4,0.3-0.6,0.6-0.6h4.1c0.3,0,0.5-0.2,0.5-0.5c0-0.3-0.2-0.5-0.5-0.5l-4.1,0c-0.3,0-0.6-0.3-0.6-0.6s0.3-0.6,0.6-0.6l3.2,0
		c0.2,0,0.4-0.3,0.4-0.5c0-0.3-0.2-0.5-0.5-0.5h-5.4c-0.4,0-0.7-0.3-0.7-0.7c0-0.4,0.2-0.8,0.6-0.9l1.2-0.3c0.3-0.1,0.4-0.3,0.4-0.6
		c0-0.1-0.1-0.3-0.2-0.4c-0.1-0.1-0.2-0.1-0.4-0.1l-2.8,0.6c-0.9,0.2-1.7,0.7-2.4,1.4L26.3,13c-0.1,0.1-0.3,0.2-0.4,0.2h-3.4v2V17
		v1.4h3.4C26.1,18.4,26.2,18.4,26.3,18.5z"/>
	<path class="st0" d="M42.7,7.3c-4.1-4-9.5-6.6-15.2-7.2C22-0.4,16.3,0.9,11.7,3.8c0,0,0,0,0,0c-3.1,1.9-5.8,4.6-7.7,7.7
		c-5.2,7.9-5.2,18.9,0,26.8c1.9,3.1,4.6,5.8,7.7,7.7c0,0,0,0,0,0C37.3,61.3,63.1,29.1,42.7,7.3z M39.6,34.6
		c-0.3,0.4-0.6,0.7-1.1,0.8c-0.5,0.1-1-0.1-1.3-0.4v3.7c0,1-0.7,1.8-1.6,1.8c-0.2,0-0.4,0-0.6-0.1c-0.2,0.7-0.8,1.2-1.5,1.2
		c-0.7,0-1.3-0.5-1.5-1.2c-0.2,0.1-0.4,0.1-0.6,0.1c-0.7,0-1.4-0.6-1.6-1.3c-0.2,0.1-0.3,0.1-0.5,0.1c-0.7,0-1.3-0.5-1.5-1.2h-3.3
		l-1,1.1c-0.8,0.9-1.8,1.5-3,1.8l-2.8,0.6c-0.1,0-0.2,0-0.3,0c-0.3,0-0.7-0.1-0.9-0.3c-0.4-0.3-0.6-0.7-0.7-1.2
		c-0.1-0.6,0.1-1.1,0.4-1.5h-3.3c-0.9,0-1.6-0.8-1.6-1.8c0-0.2,0-0.4,0.1-0.6c-0.6-0.2-1.1-0.9-1.1-1.7c0-0.8,0.5-1.5,1.1-1.7
		c-0.1-0.2-0.1-0.4-0.1-0.6c0-0.8,0.5-1.5,1.2-1.8c-0.1-0.2-0.1-0.4-0.1-0.6c0-0.8,0.4-1.4,1-1.7v-3.7l-1-1.1
		c-0.8-0.9-1.4-2-1.6-3.3l-0.6-3.1c-0.1-0.5,0-1,0.3-1.4c0.3-0.4,0.6-0.7,1.1-0.8c0.5-0.1,1,0.1,1.3,0.4v-3.7c0-1,0.7-1.8,1.6-1.8
		c0.2,0,0.4,0,0.6,0.1c0.2-0.7,0.8-1.2,1.5-1.2c0.7,0,1.3,0.5,1.5,1.2c0.2-0.1,0.4-0.1,0.6-0.1c0.7,0,1.4,0.6,1.6,1.3
		c0.2-0.1,0.3-0.1,0.5-0.1c0.7,0,1.3,0.5,1.5,1.2h3.3l1-1.1c0.8-0.9,1.8-1.5,3-1.8l2.8-0.6c0.4-0.1,0.9,0,1.3,0.3
		C34,9,34.2,9.5,34.3,10c0.1,0.6-0.1,1.1-0.4,1.5h3.3c0.9,0,1.6,0.8,1.6,1.8c0,0.2,0,0.4-0.1,0.6c0.6,0.2,1.1,0.9,1.1,1.7
		c0,0.8-0.5,1.5-1.1,1.7c0.1,0.2,0.1,0.4,0.1,0.6c0,0.8-0.5,1.5-1.2,1.8c0.1,0.2,0.1,0.4,0.1,0.6c0,0.8-0.4,1.4-1,1.7v3.7l1,1.1
		c0.8,0.9,1.4,2,1.6,3.3l0.6,3.1C39.9,33.7,39.8,34.2,39.6,34.6z"/>
	<path class="st0" d="M29.8,25.7v-3.6c-1.4-0.1-2.6-0.8-3.6-1.9l-0.6-0.6h-3.2c-0.1,1.5-0.7,3-1.7,4l-0.6,0.6v3.6
		c1.4,0.1,2.6,0.8,3.6,1.9l0.6,0.6h3.2c0.1-1.5,0.7-2.9,1.7-4L29.8,25.7z"/>
	<path class="st0" d="M36.9,27.7l-1.1-1.3c-0.1-0.1-0.2-0.3-0.2-0.5v-3.8h-1.2v2c0,0.4-0.3,0.6-0.6,0.6c-0.3,0-0.6-0.3-0.6-0.6v-2
		h-1H31V26c0,0.2-0.1,0.3-0.2,0.5l-0.7,0.8c-0.9,1-1.3,2.3-1.3,3.6v2.2v1.8v2.6c0,0.3,0.2,0.5,0.5,0.5c0.2,0,0.4-0.2,0.5-0.5v-2.4
		c0-0.4,0.3-0.6,0.6-0.6c0.3,0,0.6,0.3,0.6,0.6v3.5c0,0.3,0.2,0.5,0.5,0.5c0.2,0,0.4-0.2,0.5-0.5v-3.6c0-0.4,0.3-0.6,0.6-0.6
		c0.3,0,0.6,0.3,0.6,0.6v4.6c0,0.3,0.2,0.5,0.5,0.5c0.3,0,0.5-0.2,0.5-0.5l0-4.6c0-0.4,0.3-0.6,0.6-0.6c0.3,0,0.6,0.3,0.6,0.6l0,3.6
		c0,0.3,0.2,0.5,0.5,0.5c0.3,0,0.5-0.2,0.5-0.5v-6.1c0-0.4,0.3-0.8,0.6-0.8c0.4-0.1,0.7,0.2,0.8,0.6l0.3,1.3
		c0.1,0.3,0.3,0.5,0.6,0.4c0.1,0,0.2-0.1,0.3-0.2c0.1-0.1,0.1-0.3,0.1-0.4l-0.6-3.1C38,29.4,37.5,28.4,36.9,27.7z"/>
</g>
</svg>
